<?xml version="1.0" standalone="no"?>
<!DOCTYPE svg PUBLIC "-//W3C//DTD SVG 1.1//EN" "http://www.w3.org/Graphics/SVG/1.1/DTD/svg11.dtd" >
<svg>
<metadata>
Created by FontForge 20090914 at Mon Mar 19 20:30:12 2018
 By www-data
Typeface &#194;&#169; (your company). 2012. All Rights Reserved
</metadata>
<defs>
<font id="NeSkidComicaBDID120055769" horiz-adv-x="1179" >
  <font-face 
    font-family="NeSkid (Comica BD) ID120055769"
    font-weight="400"
    font-stretch="normal"
    units-per-em="2048"
    panose-1="2 0 5 0 0 0 0 0 0 0"
    ascent="1638"
    descent="-410"
    x-height="1232"
    cap-height="1336"
    bbox="-59 -420 1842 1739"
    underline-thickness="150"
    underline-position="-142"
    unicode-range="U+0020-U+0457"
  />
<missing-glyph horiz-adv-x="1024" 
d="M100 0v1434h824v-1434h-824zM150 50h724v1334h-724v-1334zM325 1148c20.667 18.667 40.002 32.998 58.002 42.998c35.333 20 72.666 30 111.999 30c61.333 0 110.666 -15.833 147.999 -47.5s56 -74.167 56 -127.5c0 -32.667 -7.66699 -65.5 -23 -98.5
s-44.333 -76.167 -87 -129.5c-42 -53.333 -75 -97.333 -99 -132s-36 -67.667 -36 -99c0 -25.333 8 -69.666 24 -132.999h-32c-23.333 64.667 -35 114 -35 148c0 50.667 27.167 123.334 81.5 218.001s81.5 167 81.5 217c0 38 -11 68 -33 90s-52.333 33 -91 33
c-25.333 0 -48.333 -5.66699 -69 -17c-17.333 -10 -36 -23.333 -56 -40v45zM389.002 333.998l57 57.999c7.33301 6.66699 14 10 20 10c6.66699 0 14 -3.66699 22 -11l56 -60c6 -7.33301 9 -14 9 -20c0 -7.33301 -3.33301 -14.666 -10 -21.999l-56 -62
c-9.33301 -9.33301 -16.333 -14 -21 -14c-7.33301 0 -14 3.33301 -20 10l-61 71c-4.66699 6 -7 12 -7 18c0 6.66699 3.66699 14 11 22z" />
    <glyph glyph-name=".notdef" horiz-adv-x="1024" 
d="M100 0v1434h824v-1434h-824zM150 50h724v1334h-724v-1334zM325 1148c20.667 18.667 40.002 32.998 58.002 42.998c35.333 20 72.666 30 111.999 30c61.333 0 110.666 -15.833 147.999 -47.5s56 -74.167 56 -127.5c0 -32.667 -7.66699 -65.5 -23 -98.5
s-44.333 -76.167 -87 -129.5c-42 -53.333 -75 -97.333 -99 -132s-36 -67.667 -36 -99c0 -25.333 8 -69.666 24 -132.999h-32c-23.333 64.667 -35 114 -35 148c0 50.667 27.167 123.334 81.5 218.001s81.5 167 81.5 217c0 38 -11 68 -33 90s-52.333 33 -91 33
c-25.333 0 -48.333 -5.66699 -69 -17c-17.333 -10 -36 -23.333 -56 -40v45zM389.002 333.998l57 57.999c7.33301 6.66699 14 10 20 10c6.66699 0 14 -3.66699 22 -11l56 -60c6 -7.33301 9 -14 9 -20c0 -7.33301 -3.33301 -14.666 -10 -21.999l-56 -62
c-9.33301 -9.33301 -16.333 -14 -21 -14c-7.33301 0 -14 3.33301 -20 10l-61 71c-4.66699 6 -7 12 -7 18c0 6.66699 3.66699 14 11 22z" />
    <glyph glyph-name="space" unicode=" " horiz-adv-x="508" 
 />
    <glyph glyph-name="space" unicode="&#xa0;" horiz-adv-x="508" 
 />
    <glyph glyph-name="exclam" unicode="!" horiz-adv-x="608" 
d="M147 1196l90 -762h238v762h-328zM221 336v-205h221v148z" />
    <glyph glyph-name="quotedbl" unicode="&#x22;" horiz-adv-x="718" 
d="M508 1278c-65.333 -117.333 -98.001 -183 -98.001 -197h32l58 -8c62.667 74 117.334 142.333 164.001 205h-156zM261.999 1262c0 -8.66699 -30 -69 -90 -181l41 -8h82c0 9.33301 54.667 72.333 164 189h-197z" />
    <glyph glyph-name="numbersign" unicode="#" horiz-adv-x="1056" 
d="M607 815l0.00292969 -131c0 -10.667 -5.33301 -16 -16 -16h-74c-10.667 0 -16 5.33301 -16 16v131h-148v-131c0 -13.333 -54.333 -24.333 -163 -33c-6 -10.667 -14.333 -51.667 -25 -123l180 25l8 -16v-107c0 -10.667 -5.33301 -16 -16 -16h-164v-140h156l16 -8
c-43.333 -118.667 -65 -184 -65 -196h8c142 0 213 8 213 24v164c1.33301 10.667 6.66602 16 15.999 16h74c10.667 -1.33301 16 -6.66602 16 -15.999v-57c0 -27.333 -2.66699 -68.333 -8 -123h25c38 0 98 2.66699 180 8v172l8 16c127.333 -21.333 198.333 -32 213 -32v73
l-8 99h-197c-10.667 0 -16 5.33301 -16 16v115c1.33301 10.667 6.66602 16 15.999 16h123c11.333 49.333 17 95.666 17 138.999h-9c-72 -16 -115.667 -24 -131 -24c0 5.33301 -2.66699 8 -8 8c16.667 52 25 101 25 147c-68.667 0 -145.334 -5.33301 -230.001 -16z
M517.003 561l74.001 -0.000976562c10.667 -1.33301 16 -6.66602 16 -15.999v-115c0 -10.667 -5.33301 -16 -16 -16h-74c-10.667 0 -16 5.33301 -16 16v115c1.33301 10.667 6.66602 16 15.999 16z" />
    <glyph glyph-name="dollar" unicode="$" horiz-adv-x="884" 
d="M392 1204l0.000976562 -171.999c-142 -74.667 -213 -145.667 -213 -213v-24c0 -110.667 49.333 -209 148 -295c-1.33301 -10 -56 -40 -164 -90v-33c0 -40 76.333 -72.667 229 -98v-156h82v139c0 12.667 19.333 21 58 25l8 -17v-131
c1.33301 -10.667 6.66602 -16 15.999 -16h74v180c152.667 83.333 229 168 229 254v16c0 78 -71 157.333 -213 238c0 22 46.667 95.667 140 221c-90.667 19.333 -142.667 35.666 -156 48.999v123h-90v-131c0 -10.667 -5.66699 -16 -17 -16h-49v147h-82z" />
    <glyph glyph-name="percent" unicode="%" horiz-adv-x="878" 
d="M172 664c12 -82 47.332 -122.999 105.999 -122.999h33c66 43.333 99 89.666 99 138.999c0 82 -41 123 -123 123c-57.333 0 -95.666 -46.333 -114.999 -139zM179.999 123.001l148 0.000976562l450 680c-158 -20.667 -237 -45.334 -237 -74.001zM564.999 295.002
c0 -87.333 43.667 -131 131 -131c36 0 71.667 46.333 107 139c-11.333 82 -41.333 123 -90 123h-25c-64 0 -105 -43.667 -123 -131z" />
    <glyph glyph-name="ampersand" unicode="&#x26;" horiz-adv-x="1200" 
d="M384 967v-57.999c0 -36.667 16.333 -80.334 49 -131.001c-180 -77.333 -270 -186.333 -270 -327v-41c0 -128.667 73.667 -219 221 -271c49.333 -10.667 85 -16 107 -16c72 0 164.667 35.333 278 106c16.667 -24 25 -40.333 25 -49h246c-66 106.667 -99 169.667 -99 189
c98.667 104.667 148 167.334 148 188.001c-53.333 80.667 -86.333 135.334 -99 164.001h-8c-16 -68.667 -51.333 -134.334 -106 -197.001c-38.667 78 -62.667 130 -72 156l14 57c109.333 161.333 96.333 311.666 -39 450.999l-149 33c-138 0 -220 -84.667 -246 -254z
M525 569.001l37.001 -2.00098c62 -30 90.667 -67.333 86 -112l-2 -37c-18.667 -75.333 -62.334 -111.666 -131.001 -108.999c-60 1.33301 -95.333 47 -106 137c23.333 84.667 62 125.667 116 123zM634.001 1049l29.001 -0.000976562c46 -23.333 69 -53.666 69 -90.999v-30
c-10.667 -62.667 -41.334 -94 -92.001 -94c-46 0 -75.333 36.667 -88 110c14 70 41.333 105 82 105z" />
    <glyph glyph-name="quotesingle" unicode="'" horiz-adv-x="401" 
d="M108 1440c-4 -42.667 -6 -75 -6 -97v-253c30 -8.66699 64 -13 102 -13c84.667 255.333 127 386.333 127 393h-6z" />
    <glyph glyph-name="parenleft" unicode="(" horiz-adv-x="665" 
d="M55 700v-48.999c0 -285.333 106.333 -580 319 -884c18 0 70 24.333 156 73c-104 191.333 -156 401.666 -156 630.999v107c0 184 57.667 356 173 516c0 5.33301 -104 68 -312 188h-8c-114.667 -136.667 -172 -330.667 -172 -582z" />
    <glyph glyph-name="parenright" unicode=")" horiz-adv-x="507" 
d="M184 1096v-9.00098c114.667 -158 172 -330 172 -516v-114c0 -222.667 -52 -430.334 -156 -623.001c2.66699 0 46.334 -24.667 131.001 -74h9c139.333 131.333 245.666 366.333 318.999 705c11.333 58.667 17 121.334 17 188.001v9
c0 276.667 -57.667 481.334 -173 614.001h-8c-195.333 -116 -299 -176 -311 -180z" />
    <glyph glyph-name="asterisk" unicode="*" horiz-adv-x="907" 
d="M263 1481c7.33301 0 37.3311 -46.6689 89.998 -140.002l-16 -8c-102.667 38.667 -173.667 60.667 -213 66l57 -213l41 8h131v-8c-39.333 -75.333 -69.333 -121.666 -90 -138.999c74 -108 112.333 -168.333 115 -181c10.667 0 40.667 82 90 246h8c14 0 44 -71 90 -213
l189 49c-98.667 150.667 -148 232.667 -148 246h9c100.667 -38 174.334 -62.667 221.001 -74v8c0 11.333 -19.333 82.333 -58 213l-57 -8h-115v8l164 222h-205c-9.33301 -37.333 -36.666 -86.666 -81.999 -147.999h-8c-32.667 127.333 -49 198.333 -49 213h-8
c-102.667 -90 -154.667 -139 -156 -147z" />
    <glyph glyph-name="plus" unicode="+" horiz-adv-x="860" 
d="M329 809l0.000976562 -205c0 -10.667 -5.33301 -16 -16 -16h-213c22 -97.333 33 -157.333 33 -180h188c11.333 -1.33301 17 -7 17 -17v-24c0 -38.667 2.66699 -99 8 -181h164c5.33301 82 8 142.333 8 181v24c1.33301 11.333 6.66602 17 15.999 17h197
c0 22.667 11 82.667 33 180h-222c-10.667 0 -16 5.33301 -16 16v205h-197z" />
    <glyph glyph-name="comma" unicode="," horiz-adv-x="466" 
d="M130 137c16.667 -65.333 25 -125.333 25 -180v-8c0 -57.333 -11 -131 -33 -221c62.667 -16.667 103.667 -25 123 -25c104 143.333 156 282.666 156 417.999c-6 9.33301 -9 20.333 -9 33v65c0 11.333 -5.33301 17 -16 17c-54.667 -27.333 -136.667 -57.666 -246 -90.999
v-8z" />
    <glyph glyph-name="hyphen" unicode="-" horiz-adv-x="675" 
d="M114 504l33 -230h393l33 230h-459z" />
    <glyph glyph-name="hyphen" unicode="&#xad;" horiz-adv-x="675" 
d="M114 504l33 -230h393l33 230h-459z" />
    <glyph glyph-name="period" unicode="." horiz-adv-x="448" 
d="M57 182v-16c0 -78 52 -124.333 156 -139h32c104 17.333 156 66.333 156 147c0 68 -52 111.667 -156 131h-41c-98 -17.333 -147 -58.333 -147 -123z" />
    <glyph glyph-name="slash" unicode="/" horiz-adv-x="776" 
d="M773 1378l3 3.99902c-2 -1.33301 -3 -2.66602 -3 -3.99902zM534 1513c-76.667 -286.667 -216.667 -739.667 -420 -1359c56 -16.667 104.333 -25 145 -25l482 1319h-9c-65.333 27.333 -131.333 49 -198 65z" />
    <glyph glyph-name="zero" unicode="0" horiz-adv-x="1396" 
d="M16 680l0.000976562 -90c0 -272.667 142 -461 426 -565c60 -22 131 -33 213 -33h66c290.667 0 490 136.667 598 410c21.333 60 32 131 32 213v24c0 296.667 -147.333 520.667 -442 672c-62.667 22 -136.334 35.667 -221.001 41c-328 0 -549.333 -185.667 -664 -557
c-5.33301 -46.667 -8 -85 -8 -115zM634.001 951h54c87.333 -50.667 131 -115.667 131 -195v-65c-20.667 -136.667 -78.667 -205 -174 -205c-84.667 0 -138.667 79 -162 237c24.667 152 75 228 151 228z" />
    <glyph glyph-name="one" unicode="1" horiz-adv-x="980" 
d="M18 1065v-8c0 -20.667 32.667 -127.334 98 -320.001c213.333 60.667 336.333 91 369 91v-9c-98.667 -439.333 -148 -709.666 -148 -810.999v-8l82 8h426l115 1311c-136.667 44 -215.667 66 -237 66z" />
    <glyph glyph-name="two" unicode="2" horiz-adv-x="1275" 
d="M9 1153l164.001 -408.999h8c158.667 109.333 289.667 164 393 164h33c71.333 -6 107 -41.667 107 -107c0 -54.667 -125.667 -164 -377 -328c-104 -72 -156 -148.333 -156 -229c-5.33301 -110.667 -8 -187 -8 -229c-5.33301 0 -8 -2.66699 -8 -8c146 -6 260.667 -9 344 -9
h393c68 0 152.667 -2.66699 254 -8c4 5.33301 28.667 8 74 8l-9 58v319h-8l-532 -41v33c294.667 217.333 442 373 442 467c12.667 0 21 49 25 147c0 157.333 -98.333 266.666 -295 327.999c-88.667 27.333 -173.334 41 -254.001 41h-41
c-188.667 0 -371.667 -62.667 -549 -188v-9z" />
    <glyph glyph-name="three" unicode="3" horiz-adv-x="1116" 
d="M50 1374l-9 -32.999c-5.33301 -157.333 -8 -258.333 -8 -303l-8 -33c233.333 60 394.333 90 483 90h58c53.333 0 91.333 -19 114 -57v-25c0 -84.667 -147.333 -180.334 -442 -287.001c-10.667 -38 -19 -89.667 -25 -155c101.333 16 158.666 24 171.999 24
c63.333 0 110 -21.667 140 -65v-49c0 -53.333 -150.333 -100 -451 -140c0 -28.667 -13.667 -127 -41 -295c126 -27.333 235.333 -41 328 -41h106c274.667 0 430.334 82 467.001 246v49c0 100 -60 225.667 -180 377c196.667 86 295 165.333 295 238
c16.667 5.33301 27.667 65.333 33 180v139c0 48 -11 91.667 -33 131c-297.333 6 -535 9 -713 9h-286z" />
    <glyph glyph-name="four" unicode="4" horiz-adv-x="1267" 
d="M203 1090c0 4 0.666992 7.33301 2 10c-1.33301 -2.66699 -2 -6 -2 -10zM852 1373c-52 -464.667 -85.001 -697.001 -99.001 -697.001h-41c-46 0 -119.667 -2.66699 -221 -8l-8 17l123 434l-426 131v-8l-205 -992h8c432.667 60.667 656.667 93.667 672 99
c0 -5.33301 2.66699 -8 8 -8c-27.333 -153.333 -41 -262.666 -41 -327.999h221c46.667 0 120.667 -2.66699 222 -8c5.33301 170.667 8 279.667 8 327c10.667 6 18.667 9 24 9c64.667 -6 111.334 -14.333 140.001 -25c5.33301 10.667 8 19 8 25v213
c-84.667 8 -142 16 -172 24l114 811z" />
    <glyph glyph-name="five" unicode="5" horiz-adv-x="1185" 
d="M199 1203l-204.998 -745.001h8c165.333 43.333 291.666 65 378.999 65c158.667 -13.333 238 -59.666 238 -138.999c5.33301 0 8 -11 8 -33v-24c-20.667 -98.667 -111 -148 -271 -148h-77c-46.667 0 -115 13.667 -205 41c28.667 -136.667 47 -205 55 -205
c80.667 -10.667 159.334 -16 236.001 -16h47c218 0 420.667 54.667 608 164c84.667 72 127 154 127 246v57c0 136.667 -108 215.667 -324 237h-55c-62.667 0 -160.334 -8 -293.001 -24l-8 16c36.667 106.667 60.667 166.667 72 180c289.333 11.333 460.666 17 513.999 17
l102 377h-8c-386.667 -32.667 -702.667 -54.667 -948 -66z" />
    <glyph glyph-name="six" unicode="6" horiz-adv-x="1163" 
d="M21 505c0 -224.667 114.666 -383.002 343.999 -475.002c50.667 -16 108 -24 172 -24h8c280 0 468.667 98.333 566 295l8 82c0 196.667 -112 335.667 -336 417h-66c-69.333 0 -151 -30 -245 -90h-25v17c0 96.667 54.667 200.334 164 311.001l311 188l-287 123
c-113.333 -36.667 -241.666 -126.667 -384.999 -270c-152.667 -169.333 -229 -360.666 -229 -573.999zM643.999 519.998l8 0.000976562c92.667 -16.667 139 -55 139 -115c0 -56 -52 -94.333 -156 -115c-98 27.333 -147 54.666 -147 81.999v66
c23.333 54.667 75.333 82 156 82z" />
    <glyph glyph-name="seven" unicode="7" horiz-adv-x="1175" 
d="M0 1349c5.33301 -10.667 8.00098 -19 8.00098 -25c5.33301 -248 8 -390 8 -426l443 41c-191.333 -427.333 -287 -703 -287 -827l516 -115c19.333 240.667 169.666 675 450.999 1303c-32.667 30 -49 51.667 -49 65c-232.667 0 -596 -5.33301 -1090 -16z" />
    <glyph glyph-name="eight" unicode="8" horiz-adv-x="1122" 
d="M182 1071l-0.000976562 -73.999c0 -65.333 19.333 -139 58 -221c-158.667 -100.667 -238 -220.667 -238 -360v-41c0 -191.333 142 -314.333 426 -369h172c229.333 0 385 93 467 279c10.667 46 16 87 16 123c0 132 -84.667 257.333 -254 376v9
c38.667 69.333 58 151 58 245c0 187.333 -84.667 326.666 -254 417.999c-22 11.333 -52 17 -90 17c-205.333 0 -325.666 -134 -360.999 -402zM501.999 1227c54.667 -12.667 82 -62 82 -148c0 -57.333 -22 -101 -66 -131h-24c-52 0 -82.333 38.333 -91 115v49
c7.33301 76.667 40.333 115 99 115zM509.999 662.001c98 -23.333 147 -72.667 147 -148v-16c-22.667 -93.333 -69 -140 -139 -140h-8c-86 0 -135.333 54.667 -148 164c0 70 49.333 116.667 148 140z" />
    <glyph glyph-name="nine" unicode="9" horiz-adv-x="1208" 
d="M34 1052c0 -166.667 76.334 -305.999 229.001 -417.999c54.667 -22 106.667 -33 156 -33c39.333 0 110.333 13.667 213 41v-8c0 -88.667 -87.333 -192.334 -262 -311.001c-174.667 -49.333 -300.334 -82.333 -377.001 -99v-8c13.333 -4 103.333 -75 270 -213
c232 46.667 415 126 549 238c229.333 204.667 344 412 344 622v33c0 259.333 -133.667 431.333 -401 516c-68.667 22 -142.334 33 -221.001 33h-33c-221.333 0 -368.666 -79.333 -441.999 -238c-16.667 -69.333 -25 -121 -25 -155zM452.001 1109
c120 -23.333 180 -67.001 180 -131.001v-25c0 -50 -43.667 -85.333 -131 -106c-120 20.667 -180 64.334 -180 131.001v33c0 53.333 43.667 86 131 98z" />
    <glyph glyph-name="colon" unicode=":" horiz-adv-x="534" 
d="M81 793c12 -93.333 72 -140 180 -140c109.333 22 164 71.333 164 148c0 76 -60 122.333 -180 139c-91.333 0 -146 -43.667 -164 -131v-16zM81 293v-17c0 -76 52 -122.333 156 -139h32c104 18 156 67.333 156 148c0 68 -49 111.667 -147 131h-50
c-98 -18 -147 -59 -147 -123z" />
    <glyph glyph-name="semicolon" unicode=";" horiz-adv-x="479" 
d="M86 854v-41c18 -82 78 -123 180 -123c104 23.333 156 64.333 156 123v41c0 68 -57.333 109 -172 123c-109.333 -18 -164 -59 -164 -123zM143 371c16.667 -74 25 -134.333 25 -181c-16.667 -114.667 -25 -188.334 -25 -221.001c50.667 -16 89 -24 115 -24
c98 144.667 147 278.334 147 401.001v41l-8 98c-72 -38 -156.667 -70.667 -254 -98v-16z" />
    <glyph glyph-name="semicolon" unicode="&#x37e;" horiz-adv-x="479" 
d="M86 854v-41c18 -82 78 -123 180 -123c104 23.333 156 64.333 156 123v41c0 68 -57.333 109 -172 123c-109.333 -18 -164 -59 -164 -123zM143 371c16.667 -74 25 -134.333 25 -181c-16.667 -114.667 -25 -188.334 -25 -221.001c50.667 -16 89 -24 115 -24
c98 144.667 147 278.334 147 401.001v41l-8 98c-72 -38 -156.667 -70.667 -254 -98v-16z" />
    <glyph glyph-name="less" unicode="&#x3c;" horiz-adv-x="958" 
d="M137 391l0.000976562 -175.999c10.667 -16.667 242.667 -148.334 696 -395.001v293c0 10.667 -117.333 42.667 -352 96v14c234.667 170.667 352 258.667 352 264l-43 484c-324.667 -280 -542.334 -473.333 -653.001 -580z" />
    <glyph glyph-name="equal" unicode="=" horiz-adv-x="1290" 
d="M290 866v-180h787v180h-787zM280 385v-180h786v180h-786z" />
    <glyph glyph-name="greater" unicode="&#x3e;" horiz-adv-x="1042" 
d="M235 956v-315l367 -90v-8l-367 -271l45 -493h6c310 268.667 532.667 466 668 592v172c-5.33301 13.333 -245 151 -719 413z" />
    <glyph glyph-name="question" unicode="?" horiz-adv-x="1224" 
d="M221 1247l-27.001 -530.001c244.667 121.333 374.334 182 389.001 182h12c80.667 -16.667 121 -57 121 -121v-20c0 -42.667 -87.333 -158.667 -262 -348c-61.333 -79.333 -92 -144.333 -92 -195c0 -30 9 -73 27 -129c54 26 145.333 48.667 274 68
c-13.333 21.333 -20 45.666 -20 72.999c0 38.667 107.667 164.334 323 377.001c75.333 92.667 113 184.334 113 275.001v6c0 276.667 -187.667 415 -563 415c-122 0 -220.333 -17.667 -295 -53zM306.999 -182.001c27.333 -126 107.668 -189 241.001 -189
c104 0 178.667 50 224 150l6 45c-24.667 125.333 -96.334 188 -215.001 188h-33c-148.667 -17.333 -223 -80 -223 -188v-6z" />
    <glyph glyph-name="at" unicode="@" horiz-adv-x="1492" 
d="M100 686c0 -310 160.998 -514 482.998 -612c48 -8.66699 92.333 -13 133 -13h68l39 7v141h-84c-214.667 0 -362 112 -442 336c-11.333 47.333 -17 88.333 -17 123v67c0 157.333 97 292.666 291 405.999c65.333 22 118 33 158 33h61c136.667 0 252.667 -67.667 348 -203
c41.333 -70 62 -148.667 62 -236c-12.667 -182.667 -53.667 -274 -123 -274h-6c-52 0 -78 82.667 -78 248c0 182.667 -64.333 296.667 -193 342c-17.333 6.66699 -48.666 12 -93.999 16c-30 -2.66699 -45 -6.66699 -45 -12c-52 -123.333 -82 -195.666 -90 -216.999h6
c6.66699 2.66699 12.334 4 17.001 4c90 -15.333 135 -58.333 135 -129c-4 0 -6 -1.33301 -6 -4c-15.333 6.66699 -36 10 -62 10c-99.333 0 -170.333 -56 -213 -168v-62c0 -108.667 67 -172.667 201 -192c42 0 89 22.667 141 68h6c48 -45.333 113.667 -68 197 -68
c166.667 0 280.667 71.667 342 215c22 75.333 33 142.333 33 201v73c0 240.667 -134.667 415 -404 523c-76 18.667 -143.333 28 -202 28c-306 0 -517 -144.667 -633 -434c-19.333 -74.667 -29 -147 -29 -217zM652.998 600l27 0.000976562
c43.333 -20.667 65 -47.334 65 -80.001v-26c-10.667 -54.667 -40 -82 -88 -82c-42 0 -68.667 32 -80 96c12.667 61.333 38 92 76 92z" />
    <glyph glyph-name="A" unicode="A" horiz-adv-x="1308" 
d="M135 1468c-125.333 -573.333 -164 -1041.67 -116 -1405l8 -2c90 1.33301 209.333 -10 358 -34c36 -14 65.333 -23 88 -27c-26 187.333 -39.667 326 -41 416c64.667 17.333 161 22.666 289 15.999c11.333 -50.667 32.666 -218.667 63.999 -504
c331.333 98.667 501.333 147.334 510 146.001c-123.333 456 -298.333 915.333 -525 1378c-8 1.33301 -35.333 42.333 -82 123c-285.333 -88.667 -469.666 -124.334 -552.999 -107.001zM391 1182l9 -2c124 -154.667 216.667 -314.667 278 -480l-2 -16
c-126.667 8 -221.667 -3 -285 -33c-17.333 4 -25.333 94.333 -24 271c-1.33301 72 6.66699 158.667 24 260z" />
    <glyph glyph-name="B" unicode="B" horiz-adv-x="1228" 
d="M-52 1495c120 -242 171.999 -740.335 155.999 -1495h82c353.333 -8.66699 647.333 88 882 290c74 98.667 111.667 193.667 113 285v41c4 173.333 -56 292 -180 356c-16.667 0 -25 5.66699 -25 17c61.333 58.667 93.333 145.334 96 260.001
c4 156.667 -69.667 262.334 -221 317.001c-57.333 16.667 -114.666 25.667 -171.999 27l-74 2c-148.667 4 -367.667 -29.333 -657 -100zM647.999 1292c54.667 -1.33301 92.335 -22.001 113.002 -62.001v-41c-2.66699 -72 -102.334 -132 -299.001 -180
c-16.667 48 -29 132.667 -37 254c67.333 20.667 141.666 30.334 222.999 29.001zM669 797.997l41.002 -0.000976562c82 -10.667 122.333 -44 121 -100v-33c-2.66699 -92.667 -111.334 -169.667 -326.001 -231c-9.33301 24.667 -23 134.334 -41 329.001
c49.333 26 117.666 37.667 204.999 35z" />
    <glyph glyph-name="C" unicode="C" horiz-adv-x="1009" 
d="M7 697c36 -288 177.333 -501.666 424 -640.999c105.333 -47.333 215.333 -64.333 330 -51l25 4c77.333 8.66699 135.333 23.667 174 45l-15 56c-16 132 -7.66699 270.333 25 415h-8l-326 -106c-108 -12.667 -192 24 -252 110c-20.667 32 -37.667 76.667 -51 134
c-22 189.333 48.333 338 211 446c20.667 14 50 23.667 88 29c45.333 4 95 -1.66699 149 -17v9c-9.33301 73.333 33 196.666 127 369.999c-117.333 19.333 -227 22.666 -329 9.99902l-17 -2c-320.667 -39.333 -505.667 -240.666 -555 -603.999
c-9.33301 -53.333 -9.33301 -122.333 0 -207z" />
    <glyph glyph-name="D" unicode="D" horiz-adv-x="1308" 
d="M-53 1554c104 -869.333 156 -1382.67 156 -1540l16 -8c188.667 -10.667 298 -16 328 -16c353.333 0 610 196.333 770 589c22 75.333 33 143.666 33 204.999v66c0 316.667 -191.333 543.334 -574 680.001c-131.333 38 -273.333 57 -426 57
c-202 -5.33301 -303 -16.333 -303 -33zM459 1184c152.667 0 259 -117.667 319 -353c6 -18.667 9 -48.667 9 -90c0 -120 -49.333 -204.667 -148 -254c-38 -10.667 -70.667 -16 -98 -16h-33c-49.333 0 -74 27.333 -74 82c0 32.667 -19 234.667 -57 606
c14 10.667 41.333 19 82 25z" />
    <glyph glyph-name="E" unicode="E" horiz-adv-x="1052" 
d="M-40 1220c62.667 -240 114.002 -475.334 154.002 -706.001c36.667 -210.667 50.334 -383 41.001 -517c432.667 14 720 33.333 862 58c-16.667 95.333 -47.334 239.333 -92.001 432c-105.333 -34 -253 -75.667 -443 -125l-55 174l14 10l33 6c66.667 11.333 146 36 238 74
c-8.66699 14 -37.334 114.333 -86.001 301c-42.667 -24.667 -118 -54.667 -226 -90l-12 17l-4 30c-15.333 50.667 -26.333 96.334 -33 137.001c8 7.33301 18.333 11.666 31 12.999l106 18c52 10 152.333 21.667 301 35l-8 41c-13.333 79.333 -29 187.333 -47 324l-88 -15
c-208.667 -35.333 -437.334 -107.666 -686.001 -216.999z" />
    <glyph glyph-name="F" unicode="F" horiz-adv-x="1103" 
d="M15 1483c-28.667 -513.333 -15 -945.332 41 -1296l20 -129c34.667 -24.667 170 -42 406 -52l-35 228c-12 78.667 -26.333 186.334 -43 323.001l14 13c206.667 -1.33301 325.667 0.666992 357 6c26 79.333 26 200.666 0 363.999
c-114.667 -6.66699 -236.334 -9.33398 -365.001 -8.00098l-2 8c-8 142 -5.33301 214.333 8 217c212 12.667 431.333 8.66699 658 -12l-2 8c-5.33301 36 -8.66602 179.333 -9.99902 430c-118 26 -467 -7.33301 -1047 -100z" />
    <glyph glyph-name="G" unicode="G" horiz-adv-x="1361" 
d="M1115 334c1.33301 1.33301 2.66699 3.33301 4 6zM-11.999 731c36.667 -365.333 197.001 -598.666 481.001 -699.999c45.333 -18 120.666 -27.667 225.999 -29c282.667 28.667 482 207.667 598 537c26 116 32.667 240.333 20 373v8
c-346.667 -45.333 -552.667 -71.333 -618 -78l2 -33c6.66699 -66.667 5.33398 -132 -3.99902 -196c27.333 13.333 64 24.666 110 33.999c65.333 7.33301 99.666 -2.66699 102.999 -30c-42.667 -126 -118.667 -193.667 -228 -203c-120 -12 -217.667 60.333 -293 217
c-13.333 28.667 -21.333 58 -24 88c-20.667 208.667 32.666 335 159.999 379h16c32.667 4 86 -4.33301 160 -25l149 410h-8c-90 28.667 -179.333 39 -268 31l-17 -2c-311.333 -30 -499.666 -229.333 -564.999 -598c-1.33301 -100 -1.33301 -161 0 -183z" />
    <glyph glyph-name="H" unicode="H" 
d="M173 1395c-131.333 -584.667 -197.001 -1051.67 -197.001 -1401l360 -17v9c26 311.333 48 467 66 467h74c70.667 0 119.667 -5.66699 147 -17c-5.33301 -13.333 -21.666 -160.666 -48.999 -441.999l16 8c150.667 5.33301 268.334 8 353.001 8l73 -8
c71.333 554.667 118 991.667 140 1311h-9c-84.667 0 -218.334 -2.66699 -401.001 -8c-38 -288.667 -57 -450 -57 -484h-8c-148 6.66699 -222 20.334 -222 41.001l74 467c-174.667 44 -294.667 66 -360 66z" />
    <glyph glyph-name="I" unicode="I" horiz-adv-x="575" 
d="M6 1274c66.667 -617.333 126.667 -1027.67 180 -1231c16.667 -36.667 25 -57 25 -61l330 69c-46.667 624 -61 1054.67 -43 1292z" />
    <glyph glyph-name="J" unicode="J" horiz-adv-x="1052" 
d="M465 1564l-261.999 9v-295c0 -8.66699 8.33301 -17 25 -25h352c22 0 35.667 -82 41 -246v-131c-14 -262 -74 -393 -180 -393c-88.667 0 -154.334 90 -197.001 270h-8c-48 -16 -146.333 -89.667 -295 -221c38 -174.667 117.333 -316.667 238 -426
c106 -70.667 207 -106 303 -106h49c189.333 -0 331.333 229.333 426 688c32.667 202 49 404 49 606v303c-182.667 -22 -363 -33 -541 -33z" />
    <glyph glyph-name="K" unicode="K" horiz-adv-x="1333" 
d="M748 1358c-61.333 -75.333 -145.332 -189.333 -251.999 -342l-16 -10h-8c9.33301 137.333 19.333 247 30 329l-489 -26c4 -173.333 8 -301.666 12 -384.999l29 -484c9.33301 -185.333 28.333 -332 57 -440l334 45l-6 98c-4 83.333 -7.33301 197.333 -10 342l8 2
c237.333 -260.667 362.333 -390.334 375 -389.001c312.667 116 475.667 174 489 174c-14.667 19.333 -230.334 166.333 -647.001 441l-10 16c378 388 569 587.333 573 598c-22 -1.33301 -178.333 9 -469 31z" />
    <glyph glyph-name="L" unicode="L" horiz-adv-x="1011" 
d="M118 1416c-70.667 -488.667 -105.999 -890 -105.999 -1204v-74c0 -87.333 8.33301 -131 25 -131c32.667 0 174.667 -5.33301 426 -16c173.333 0 331.666 21.667 474.999 65c-16.667 143.333 -25 258.333 -25 345v172c-225.333 -93.333 -392 -140 -500 -140
c0 5.33301 -2.66699 8 -8 8c82 459.333 150.333 765.333 205 918z" />
    <glyph glyph-name="M" unicode="M" horiz-adv-x="1589" 
d="M140 1065c-1.33301 1.33301 -2 3.33301 -2 6c0 -1.33301 0.666992 -3.33301 2 -6zM330 1155c0 1.33301 -0.333008 2.33301 -1 3s-1 1.66699 -1 3l-2 2zM-2 1074c22 -583.333 49.332 -930.331 81.999 -1041c224 22 336 38.333 336 49c-22 291.333 -33 463.666 -33 516.999
c5.33301 9.33301 8 20 8 32h17c92.667 -274 155.334 -484 188.001 -630h8c124.667 10.667 242 24 352 40c11.333 277.333 17 427.666 17 450.999l16 8h8c119.333 -336 185 -505.333 197 -508c125.333 45.333 245.333 105.666 360 180.999
c-43.333 286.667 -193.333 641.334 -450 1064c-204.667 -16 -346.667 -29.333 -426 -40c5.33301 -101.333 8 -175.333 8 -222v-319h-16c0 35.333 -79.333 251 -238 647c-289.333 -138 -434 -211.667 -434 -221v-8z" />
    <glyph glyph-name="N" unicode="N" horiz-adv-x="1163" 
d="M-29 1075c60 -446.667 122.667 -793.667 188 -1041c24.667 0 136.667 11 336 33c-54.667 294.667 -82 477.667 -82 549v8h17c140.667 -315.333 222.667 -525.666 246 -630.999l409 41c10.667 204 16 425.333 16 664v229c-4 202 -17.333 303 -40 303
c-44 0 -183.333 -10.667 -418 -32v-9c32.667 -232 54.334 -412 65.001 -540h-16c-91.333 221.333 -192.333 437 -303 647h-17c-250.667 -128.667 -384.334 -202.334 -401.001 -221.001z" />
    <glyph glyph-name="O" unicode="O" horiz-adv-x="1419" 
d="M1 725c0 -243.333 119.999 -454.332 359.999 -632.999c102.667 -62.667 214.667 -94 336 -94h41c238 0 423.667 123.667 557 371c27.333 76 41 146.333 41 211v34c0 256.667 -114.667 465.667 -344 627c-103.333 53.333 -198.666 80 -285.999 80h-74
c-230.667 0 -422 -114 -574 -342c-38 -92.667 -57 -177.334 -57 -254.001zM598.999 936.001c110.667 0 206.333 -86.667 287 -260l8 -76c0 -105.333 -76.333 -172.333 -229 -201h-17c-130.667 0 -207 92.333 -229 277v51c16 139.333 76 209 180 209z" />
    <glyph glyph-name="P" unicode="P" horiz-adv-x="1173" 
d="M-12 1326c44 -453.333 65.999 -778.333 65.999 -975v-164c0 -28.667 -3 -75 -9 -139c191.333 -16.667 339 -35.667 443 -57c-27.333 240 -41 412 -41 516c10.667 5.33301 18.667 8 24 8c23.333 0 45.333 -2.66699 66 -8c288 0 479 112 573 336c22 86 33 154 33 204
c0 222.667 -150 354 -450 394c0 5.33301 -30.333 8 -91 8h-82c-189.333 0 -366.666 -41 -531.999 -123zM511.999 1129c142 -13.333 213 -59.665 213 -138.998v-8c0 -106.667 -79 -172.334 -237 -197.001h-33c-10.667 0 -16 8.33301 -16 25
c0 49.333 -8.33301 150.333 -25 303c9.33301 5.33301 42 10.666 98 15.999z" />
    <glyph glyph-name="Q" unicode="Q" horiz-adv-x="1501" 
d="M-6 818c0 -255.333 114.667 -489.999 344 -703.999c125.333 -76.667 237.333 -115 336 -115h33c54.667 0 125.667 11 213 33c146 -102.667 238.667 -157.334 278 -164.001c98.667 65.333 186 158 262 278c-78.667 44 -163.334 77 -254.001 99l-8 16
c87.333 108 131 236.333 131 385v74c0 263.333 -112 490 -336 680c-113.333 60 -211.333 90 -294 90h-74c-229.333 0 -420.666 -128.333 -573.999 -385c-38 -113.333 -57 -209 -57 -287zM600 1031c108 0 200.999 -95.665 278.999 -286.998c5.33301 -28.667 8 -56 8 -82
c0 -122.667 -82 -196.334 -246 -221.001c-91.333 0 -159.666 57.333 -204.999 172c-16 40 -24 94.667 -24 164v8c0 117.333 43.667 196.666 131 237.999z" />
    <glyph glyph-name="R" unicode="R" horiz-adv-x="1222" 
d="M12 1360c49.333 -513.333 73.999 -859.999 73.999 -1040c-5.33301 -116 -11 -198 -17 -246c206.667 -16.667 354.334 -35.667 443.001 -57c-22 215.333 -35.667 387.333 -41 516l16 8h115c16 0 62.333 -183 139 -549c92.667 27.333 237.334 54.666 434.001 81.999v8
c-2.66699 82 -51.667 235 -147 459l-58 90v16c131.333 101.333 197 243.333 197 426c0 179.333 -101 302.333 -303 369c-78 22 -154.333 33 -229 33h-99c-160.667 0 -335.334 -38.333 -524.001 -115zM535.999 1155c124.667 0 195.667 -43.666 213 -130.999v-16
c-26 -131.333 -105 -197 -237 -197h-25c-14.667 0 -31 109.333 -49 328c5.33301 5.33301 38 10.666 98 15.999z" />
    <glyph glyph-name="S" unicode="S" horiz-adv-x="1050" 
d="M-6 1288c-30 -218.667 53.332 -381.005 249.999 -487.005c206 -61.333 304.333 -129.666 295 -204.999c13.333 -1.33301 16.666 -34.666 9.99902 -99.999l-2 -17c-9.33301 -78 -64 -117.667 -164 -119l-41 7c-46 5.33301 -124.333 37.333 -235 96
c10.667 -45.333 12.667 -92.666 6 -141.999l-27 -210c162.667 -54.667 285 -87.667 367 -99l65 -8c191.333 -26 334 52 428 234c16.667 48.667 27 88 31 118l12 82c30 232 -75 400 -315 504c-147.333 44 -215 116.333 -203 217l2 16c8.66699 62 70.334 89.333 185.001 82
c44.667 -5.33301 126.334 -32.666 245.001 -81.999l2 9c-24 110.667 -30.667 208.334 -20 293.001c-169.333 38 -298.333 63 -387 75c-308.667 40 -476.667 -48 -504 -264z" />
    <glyph glyph-name="T" unicode="T" horiz-adv-x="1268" 
d="M9 1076l0.000976562 -107c125.333 32.667 234.666 49 327.999 49c38 -245.333 57 -559.333 57 -942v-114c30 -6 52 -9 66 -9c207.333 11.333 311 25 311 41c-11.333 513.333 -17 860.333 -17 1041v16l9 16c70.667 -10.667 166 -16 286 -16h164
c-27.333 177.333 -46.333 341.333 -57 492c-118.667 0 -484.667 -35.667 -1098 -107c-32.667 -84.667 -49 -204.667 -49 -360z" />
    <glyph glyph-name="U" unicode="U" horiz-adv-x="1384" 
d="M732 1486c114.667 -302.667 171.998 -526.669 171.998 -672.002v-81c0 -123.333 -49 -213.666 -147 -270.999c-49.333 -6.66699 -79.333 -12 -90 -16c-196.667 0 -295 172 -295 516c10.667 226.667 24.334 385 41.001 475c-117.333 -5.33301 -204.666 -8 -261.999 -8
h-156v-49c0 -635.333 87.333 -1039.67 262 -1213c132.667 -130.667 269.334 -196 410.001 -196c270 0 474.667 155.667 614 467c22 80 33 140 33 180c0 307.333 -49.333 635 -148 983c-122.667 -44 -267.334 -82.333 -434.001 -115z" />
    <glyph glyph-name="V" unicode="V" horiz-adv-x="1081" 
d="M617 1487v-41c0 -114.667 2.66699 -218.667 8 -312c0 -212.667 -30 -442 -90 -688h-17c-103.333 454.667 -155 766 -155 934c-174.667 -72 -300.334 -110.333 -377.001 -115c0 -233.333 112 -656.333 336 -1269l98 8h66c86 0 189.667 -11 311 -33
c106.667 198 191.334 676 254.001 1434c5.33301 0 8 2.66699 8 8c-10.667 5.33301 -158 30 -442 74z" />
    <glyph glyph-name="W" unicode="W" horiz-adv-x="1865" 
d="M889 793c-1.33301 2.66699 -2 6.66797 -2 12.001v2c1.33301 -2.66699 2 -7.33398 2 -14.001zM678 1299l-57.9971 7.99902v-188c0 -206 -35.333 -435.333 -106 -688h-17c-103.333 461.333 -155 772.666 -155 933.999h-8c-120.667 -54.667 -243.667 -93 -369 -115
c0 -229.333 112 -652.666 336 -1270c86 11.333 135 17 147 17c116 -6 225.333 -19.667 328 -41c49.333 104.667 95.666 230.334 138.999 377.001h17c21.333 -84.667 56.666 -186 105.999 -304l98 9h58c79.333 0 185.666 -11 318.999 -33
c142 364.667 213 621.334 213 770.001c22 87.333 44 256.666 66 507.999l-434 65c0 -356 -38.333 -648 -115 -876h-16c-104 506.667 -156 820.667 -156 942c-170.667 -76.667 -301.667 -115 -393 -115z" />
    <glyph glyph-name="X" unicode="X" horiz-adv-x="1509" 
d="M883 1337c-127.333 -278.667 -198.334 -418 -213.001 -418c-198 236 -302 356 -312 360l-360 -164c1.33301 -6.66699 173.333 -175.667 516 -507l-377 -631c299.333 28.667 463.333 47.667 492 57c91.333 210 143 316.667 155 320
c124.667 -179.333 198.667 -272.333 222 -279l434 131c-71.333 78 -232.666 239 -483.999 483l361 672z" />
    <glyph glyph-name="Y" unicode="Y" 
d="M573 847l-17 2c-36.667 174.667 -87 383 -151 625c-10 1.33301 -149.333 -36.334 -418 -113.001l395 -897c-20 -39.333 -117 -183.333 -291 -432l9 -2l448 -94c207.333 268.667 329 508.334 365 719.001c6.66699 4 81.667 246.333 225 727
c-262 -22 -406 -36.333 -432 -43c-84.667 -298 -129 -462 -133 -492z" />
    <glyph glyph-name="Z" unicode="Z" horiz-adv-x="1339" 
d="M529 1191c-92.667 0 -267.334 11 -524.001 33v-8c16.667 -260.667 27.667 -408 33 -442c116 -11.333 222.333 -17 319 -17h25c65.333 0 161 8.33301 287 25v-8c-82 -140.667 -243.333 -263.667 -484 -369c-49.333 -27.333 -74 -43.666 -74 -48.999
c27.333 -216 41 -333.333 41 -352h164c356.667 0 681.667 32.667 975 98v8c-39.333 247.333 -66.666 386.666 -81.999 417.999c-8 0 -174.333 -41 -499 -123v8c0 4 169 132.333 507 385c-65.333 265.333 -98 410 -98 434c-303.333 -27.333 -500 -41 -590 -41z" />
    <glyph glyph-name="bracketleft" unicode="[" horiz-adv-x="817" 
d="M226 1147c-32.667 -954.667 -51.666 -1460 -56.999 -1516h590c-5.33301 54.667 -8 95.667 -8 123v41h-230c-10.667 0 -16 5.66699 -16 17v1155c1.33301 10.667 6.66602 16 15.999 16h213c-5.33301 74 -8 128.667 -8 164h-500z" />
    <glyph glyph-name="backslash" unicode="\" horiz-adv-x="800" 
d="M774 -12c0 -1.33301 0.666992 -2.66699 2 -4zM172 1425l524 -1327c50.667 16.667 100 30.334 148 41.001c-186 524.667 -336.333 978 -451 1360h-8c-140.667 -44.667 -211.667 -69.334 -213 -74.001z" />
    <glyph glyph-name="bracketright" unicode="]" horiz-adv-x="841" 
d="M169 1108c5.33301 -64 8.00098 -110.332 8.00098 -138.999v-25h230c10.667 -1.33301 16 -6.66602 16 -15.999v-1155c0 -11.333 -5.33301 -17 -16 -17h-213c5.33301 -80.667 8 -135.334 8 -164.001h499c27.333 829.333 46.666 1334.67 57.999 1516h-590z" />
    <glyph glyph-name="asciicircum" unicode="^" horiz-adv-x="776" 
d="M145 999c-1.33301 0 -2 -0.666992 -2 -2v2h2zM417 518c0 -14.667 -86 -104.667 -258 -270c8.66699 0 43.667 -23.333 105 -70c90 75.333 139 128.666 147 159.999h15c70.667 -83.333 121 -136.666 151 -159.999c50.667 30 85.667 55.333 105 76
c-46.667 32.667 -135 120.667 -265 264z" />
    <glyph glyph-name="underscore" unicode="_" horiz-adv-x="1353" 
d="M126 -168v-180h1169v180h-1169z" />
    <glyph glyph-name="grave" unicode="`" horiz-adv-x="546" 
d="M47 971c8 -5.33301 94.667 -90.667 260 -256l4 8c19.333 24.667 54.333 58.667 105 102c-110.667 212 -179.667 326 -207 342c-102.667 -120 -156.667 -185.333 -162 -196z" />
    <glyph glyph-name="a" unicode="a" horiz-adv-x="1308" 
d="M135 1468c-125.333 -573.333 -164 -1041.67 -116 -1405l8 -2c90 1.33301 209.333 -10 358 -34c36 -14 65.333 -23 88 -27c-26 187.333 -39.667 326 -41 416c64.667 17.333 161 22.666 289 15.999c11.333 -50.667 32.666 -218.667 63.999 -504
c331.333 98.667 501.333 147.334 510 146.001c-123.333 456 -298.333 915.333 -525 1378c-8 1.33301 -35.333 42.333 -82 123c-285.333 -88.667 -469.666 -124.334 -552.999 -107.001zM391 1182l9 -2c124 -154.667 216.667 -314.667 278 -480l-2 -16
c-126.667 8 -221.667 -3 -285 -33c-17.333 4 -25.333 94.333 -24 271c-1.33301 72 6.66699 158.667 24 260z" />
    <glyph glyph-name="b" unicode="b" horiz-adv-x="1228" 
d="M-52 1495c120 -242 171.999 -740.335 155.999 -1495h82c353.333 -8.66699 647.333 88 882 290c74 98.667 111.667 193.667 113 285v41c4 173.333 -56 292 -180 356c-16.667 0 -25 5.66699 -25 17c61.333 58.667 93.333 145.334 96 260.001
c4 156.667 -69.667 262.334 -221 317.001c-57.333 16.667 -114.666 25.667 -171.999 27l-74 2c-148.667 4 -367.667 -29.333 -657 -100zM647.999 1292c54.667 -1.33301 92.335 -22.001 113.002 -62.001v-41c-2.66699 -72 -102.334 -132 -299.001 -180
c-16.667 48 -29 132.667 -37 254c67.333 20.667 141.666 30.334 222.999 29.001zM669 797.997l41.002 -0.000976562c82 -10.667 122.333 -44 121 -100v-33c-2.66699 -92.667 -111.334 -169.667 -326.001 -231c-9.33301 24.667 -23 134.334 -41 329.001
c49.333 26 117.666 37.667 204.999 35z" />
    <glyph glyph-name="c" unicode="c" horiz-adv-x="1009" 
d="M7 697c36 -288 177.333 -501.666 424 -640.999c105.333 -47.333 215.333 -64.333 330 -51l25 4c77.333 8.66699 135.333 23.667 174 45l-15 56c-16 132 -7.66699 270.333 25 415h-8l-326 -106c-108 -12.667 -192 24 -252 110c-20.667 32 -37.667 76.667 -51 134
c-22 189.333 48.333 338 211 446c20.667 14 50 23.667 88 29c45.333 4 95 -1.66699 149 -17v9c-9.33301 73.333 33 196.666 127 369.999c-117.333 19.333 -227 22.666 -329 9.99902l-17 -2c-320.667 -39.333 -505.667 -240.666 -555 -603.999
c-9.33301 -53.333 -9.33301 -122.333 0 -207z" />
    <glyph glyph-name="d" unicode="d" horiz-adv-x="1308" 
d="M-53 1554c104 -869.333 156 -1382.67 156 -1540l16 -8c188.667 -10.667 298 -16 328 -16c353.333 0 610 196.333 770 589c22 75.333 33 143.666 33 204.999v66c0 316.667 -191.333 543.334 -574 680.001c-131.333 38 -273.333 57 -426 57
c-202 -5.33301 -303 -16.333 -303 -33zM459 1184c152.667 0 259 -117.667 319 -353c6 -18.667 9 -48.667 9 -90c0 -120 -49.333 -204.667 -148 -254c-38 -10.667 -70.667 -16 -98 -16h-33c-49.333 0 -74 27.333 -74 82c0 32.667 -19 234.667 -57 606
c14 10.667 41.333 19 82 25z" />
    <glyph glyph-name="e" unicode="e" horiz-adv-x="1052" 
d="M-40 1220c62.667 -240 114.002 -475.334 154.002 -706.001c36.667 -210.667 50.334 -383 41.001 -517c432.667 14 720 33.333 862 58c-16.667 95.333 -47.334 239.333 -92.001 432c-105.333 -34 -253 -75.667 -443 -125l-55 174l14 10l33 6c66.667 11.333 146 36 238 74
c-8.66699 14 -37.334 114.333 -86.001 301c-42.667 -24.667 -118 -54.667 -226 -90l-12 17l-4 30c-15.333 50.667 -26.333 96.334 -33 137.001c8 7.33301 18.333 11.666 31 12.999l106 18c52 10 152.333 21.667 301 35l-8 41c-13.333 79.333 -29 187.333 -47 324l-88 -15
c-208.667 -35.333 -437.334 -107.666 -686.001 -216.999z" />
    <glyph glyph-name="f" unicode="f" horiz-adv-x="1103" 
d="M15 1483c-28.667 -513.333 -15 -945.332 41 -1296l20 -129c34.667 -24.667 170 -42 406 -52l-35 228c-12 78.667 -26.333 186.334 -43 323.001l14 13c206.667 -1.33301 325.667 0.666992 357 6c26 79.333 26 200.666 0 363.999
c-114.667 -6.66699 -236.334 -9.33398 -365.001 -8.00098l-2 8c-8 142 -5.33301 214.333 8 217c212 12.667 431.333 8.66699 658 -12l-2 8c-5.33301 36 -8.66602 179.333 -9.99902 430c-118 26 -467 -7.33301 -1047 -100z" />
    <glyph glyph-name="g" unicode="g" horiz-adv-x="1361" 
d="M1115 334c1.33301 1.33301 2.66699 3.33301 4 6zM-11.999 731c36.667 -365.333 197.001 -598.666 481.001 -699.999c45.333 -18 120.666 -27.667 225.999 -29c282.667 28.667 482 207.667 598 537c26 116 32.667 240.333 20 373v8
c-346.667 -45.333 -552.667 -71.333 -618 -78l2 -33c6.66699 -66.667 5.33398 -132 -3.99902 -196c27.333 13.333 64 24.666 110 33.999c65.333 7.33301 99.666 -2.66699 102.999 -30c-42.667 -126 -118.667 -193.667 -228 -203c-120 -12 -217.667 60.333 -293 217
c-13.333 28.667 -21.333 58 -24 88c-20.667 208.667 32.666 335 159.999 379h16c32.667 4 86 -4.33301 160 -25l149 410h-8c-90 28.667 -179.333 39 -268 31l-17 -2c-311.333 -30 -499.666 -229.333 -564.999 -598c-1.33301 -100 -1.33301 -161 0 -183z" />
    <glyph glyph-name="h" unicode="h" 
d="M173 1395c-131.333 -584.667 -197.001 -1051.67 -197.001 -1401l360 -17v9c26 311.333 48 467 66 467h74c70.667 0 119.667 -5.66699 147 -17c-5.33301 -13.333 -21.666 -160.666 -48.999 -441.999l16 8c150.667 5.33301 268.334 8 353.001 8l73 -8
c71.333 554.667 118 991.667 140 1311h-9c-84.667 0 -218.334 -2.66699 -401.001 -8c-38 -288.667 -57 -450 -57 -484h-8c-148 6.66699 -222 20.334 -222 41.001l74 467c-174.667 44 -294.667 66 -360 66z" />
    <glyph glyph-name="i" unicode="i" horiz-adv-x="575" 
d="M6 1274c66.667 -617.333 126.667 -1027.67 180 -1231c16.667 -36.667 25 -57 25 -61l330 69c-46.667 624 -61 1054.67 -43 1292z" />
    <glyph glyph-name="j" unicode="j" horiz-adv-x="1052" 
d="M465 1564l-261.999 9v-295c0 -8.66699 8.33301 -17 25 -25h352c22 0 35.667 -82 41 -246v-131c-14 -262 -74 -393 -180 -393c-88.667 0 -154.334 90 -197.001 270h-8c-48 -16 -146.333 -89.667 -295 -221c38 -174.667 117.333 -316.667 238 -426
c106 -70.667 207 -106 303 -106h49c189.333 -0 331.333 229.333 426 688c32.667 202 49 404 49 606v303c-182.667 -22 -363 -33 -541 -33z" />
    <glyph glyph-name="k" unicode="k" horiz-adv-x="1333" 
d="M748 1358c-61.333 -75.333 -145.332 -189.333 -251.999 -342l-16 -10h-8c9.33301 137.333 19.333 247 30 329l-489 -26c4 -173.333 8 -301.666 12 -384.999l29 -484c9.33301 -185.333 28.333 -332 57 -440l334 45l-6 98c-4 83.333 -7.33301 197.333 -10 342l8 2
c237.333 -260.667 362.333 -390.334 375 -389.001c312.667 116 475.667 174 489 174c-14.667 19.333 -230.334 166.333 -647.001 441l-10 16c378 388 569 587.333 573 598c-22 -1.33301 -178.333 9 -469 31z" />
    <glyph glyph-name="l" unicode="l" horiz-adv-x="1011" 
d="M118 1416c-70.667 -488.667 -105.999 -890 -105.999 -1204v-74c0 -87.333 8.33301 -131 25 -131c32.667 0 174.667 -5.33301 426 -16c173.333 0 331.666 21.667 474.999 65c-16.667 143.333 -25 258.333 -25 345v172c-225.333 -93.333 -392 -140 -500 -140
c0 5.33301 -2.66699 8 -8 8c82 459.333 150.333 765.333 205 918z" />
    <glyph glyph-name="m" unicode="m" horiz-adv-x="1589" 
d="M140 1065c-1.33301 1.33301 -2 3.33301 -2 6c0 -1.33301 0.666992 -3.33301 2 -6zM330 1155c0 1.33301 -0.333008 2.33301 -1 3s-1 1.66699 -1 3l-2 2zM-2 1074c22 -583.333 49.332 -930.331 81.999 -1041c224 22 336 38.333 336 49c-22 291.333 -33 463.666 -33 516.999
c5.33301 9.33301 8 20 8 32h17c92.667 -274 155.334 -484 188.001 -630h8c124.667 10.667 242 24 352 40c11.333 277.333 17 427.666 17 450.999l16 8h8c119.333 -336 185 -505.333 197 -508c125.333 45.333 245.333 105.666 360 180.999
c-43.333 286.667 -193.333 641.334 -450 1064c-204.667 -16 -346.667 -29.333 -426 -40c5.33301 -101.333 8 -175.333 8 -222v-319h-16c0 35.333 -79.333 251 -238 647c-289.333 -138 -434 -211.667 -434 -221v-8z" />
    <glyph glyph-name="n" unicode="n" horiz-adv-x="1163" 
d="M-29 1075c60 -446.667 122.667 -793.667 188 -1041c24.667 0 136.667 11 336 33c-54.667 294.667 -82 477.667 -82 549v8h17c140.667 -315.333 222.667 -525.666 246 -630.999l409 41c10.667 204 16 425.333 16 664v229c-4 202 -17.333 303 -40 303
c-44 0 -183.333 -10.667 -418 -32v-9c32.667 -232 54.334 -412 65.001 -540h-16c-91.333 221.333 -192.333 437 -303 647h-17c-250.667 -128.667 -384.334 -202.334 -401.001 -221.001z" />
    <glyph glyph-name="o" unicode="o" horiz-adv-x="1419" 
d="M1 725c0 -243.333 119.999 -454.332 359.999 -632.999c102.667 -62.667 214.667 -94 336 -94h41c238 0 423.667 123.667 557 371c27.333 76 41 146.333 41 211v34c0 256.667 -114.667 465.667 -344 627c-103.333 53.333 -198.666 80 -285.999 80h-74
c-230.667 0 -422 -114 -574 -342c-38 -92.667 -57 -177.334 -57 -254.001zM598.999 936.001c110.667 0 206.333 -86.667 287 -260l8 -76c0 -105.333 -76.333 -172.333 -229 -201h-17c-130.667 0 -207 92.333 -229 277v51c16 139.333 76 209 180 209z" />
    <glyph glyph-name="p" unicode="p" horiz-adv-x="1173" 
d="M-12 1326c44 -453.333 65.999 -778.333 65.999 -975v-164c0 -28.667 -3 -75 -9 -139c191.333 -16.667 339 -35.667 443 -57c-27.333 240 -41 412 -41 516c10.667 5.33301 18.667 8 24 8c23.333 0 45.333 -2.66699 66 -8c288 0 479 112 573 336c22 86 33 154 33 204
c0 222.667 -150 354 -450 394c0 5.33301 -30.333 8 -91 8h-82c-189.333 0 -366.666 -41 -531.999 -123zM511.999 1129c142 -13.333 213 -59.665 213 -138.998v-8c0 -106.667 -79 -172.334 -237 -197.001h-33c-10.667 0 -16 8.33301 -16 25
c0 49.333 -8.33301 150.333 -25 303c9.33301 5.33301 42 10.666 98 15.999z" />
    <glyph glyph-name="q" unicode="q" horiz-adv-x="1501" 
d="M-6 818c0 -255.333 114.667 -489.999 344 -703.999c125.333 -76.667 237.333 -115 336 -115h33c54.667 0 125.667 11 213 33c146 -102.667 238.667 -157.334 278 -164.001c98.667 65.333 186 158 262 278c-78.667 44 -163.334 77 -254.001 99l-8 16
c87.333 108 131 236.333 131 385v74c0 263.333 -112 490 -336 680c-113.333 60 -211.333 90 -294 90h-74c-229.333 0 -420.666 -128.333 -573.999 -385c-38 -113.333 -57 -209 -57 -287zM600 1031c108 0 200.999 -95.665 278.999 -286.998c5.33301 -28.667 8 -56 8 -82
c0 -122.667 -82 -196.334 -246 -221.001c-91.333 0 -159.666 57.333 -204.999 172c-16 40 -24 94.667 -24 164v8c0 117.333 43.667 196.666 131 237.999z" />
    <glyph glyph-name="r" unicode="r" horiz-adv-x="1222" 
d="M12 1360c49.333 -513.333 73.999 -859.999 73.999 -1040c-5.33301 -116 -11 -198 -17 -246c206.667 -16.667 354.334 -35.667 443.001 -57c-22 215.333 -35.667 387.333 -41 516l16 8h115c16 0 62.333 -183 139 -549c92.667 27.333 237.334 54.666 434.001 81.999v8
c-2.66699 82 -51.667 235 -147 459l-58 90v16c131.333 101.333 197 243.333 197 426c0 179.333 -101 302.333 -303 369c-78 22 -154.333 33 -229 33h-99c-160.667 0 -335.334 -38.333 -524.001 -115zM535.999 1155c124.667 0 195.667 -43.666 213 -130.999v-16
c-26 -131.333 -105 -197 -237 -197h-25c-14.667 0 -31 109.333 -49 328c5.33301 5.33301 38 10.666 98 15.999z" />
    <glyph glyph-name="s" unicode="s" horiz-adv-x="1050" 
d="M-6 1288c-30 -218.667 53.332 -381.005 249.999 -487.005c206 -61.333 304.333 -129.666 295 -204.999c13.333 -1.33301 16.666 -34.666 9.99902 -99.999l-2 -17c-9.33301 -78 -64 -117.667 -164 -119l-41 7c-46 5.33301 -124.333 37.333 -235 96
c10.667 -45.333 12.667 -92.666 6 -141.999l-27 -210c162.667 -54.667 285 -87.667 367 -99l65 -8c191.333 -26 334 52 428 234c16.667 48.667 27 88 31 118l12 82c30 232 -75 400 -315 504c-147.333 44 -215 116.333 -203 217l2 16c8.66699 62 70.334 89.333 185.001 82
c44.667 -5.33301 126.334 -32.666 245.001 -81.999l2 9c-24 110.667 -30.667 208.334 -20 293.001c-169.333 38 -298.333 63 -387 75c-308.667 40 -476.667 -48 -504 -264z" />
    <glyph glyph-name="t" unicode="t" horiz-adv-x="1268" 
d="M9 1076l0.000976562 -107c125.333 32.667 234.666 49 327.999 49c38 -245.333 57 -559.333 57 -942v-114c30 -6 52 -9 66 -9c207.333 11.333 311 25 311 41c-11.333 513.333 -17 860.333 -17 1041v16l9 16c70.667 -10.667 166 -16 286 -16h164
c-27.333 177.333 -46.333 341.333 -57 492c-118.667 0 -484.667 -35.667 -1098 -107c-32.667 -84.667 -49 -204.667 -49 -360z" />
    <glyph glyph-name="u" unicode="u" horiz-adv-x="1384" 
d="M732 1486c114.667 -302.667 171.998 -526.669 171.998 -672.002v-81c0 -123.333 -49 -213.666 -147 -270.999c-49.333 -6.66699 -79.333 -12 -90 -16c-196.667 0 -295 172 -295 516c10.667 226.667 24.334 385 41.001 475c-117.333 -5.33301 -204.666 -8 -261.999 -8
h-156v-49c0 -635.333 87.333 -1039.67 262 -1213c132.667 -130.667 269.334 -196 410.001 -196c270 0 474.667 155.667 614 467c22 80 33 140 33 180c0 307.333 -49.333 635 -148 983c-122.667 -44 -267.334 -82.333 -434.001 -115z" />
    <glyph glyph-name="v" unicode="v" horiz-adv-x="1081" 
d="M617 1487v-41c0 -114.667 2.66699 -218.667 8 -312c0 -212.667 -30 -442 -90 -688h-17c-103.333 454.667 -155 766 -155 934c-174.667 -72 -300.334 -110.333 -377.001 -115c0 -233.333 112 -656.333 336 -1269l98 8h66c86 0 189.667 -11 311 -33
c106.667 198 191.334 676 254.001 1434c5.33301 0 8 2.66699 8 8c-10.667 5.33301 -158 30 -442 74z" />
    <glyph glyph-name="w" unicode="w" horiz-adv-x="1865" 
d="M889 793c-1.33301 2.66699 -2 6.66797 -2 12.001v2c1.33301 -2.66699 2 -7.33398 2 -14.001zM678 1299l-57.9971 7.99902v-188c0 -206 -35.333 -435.333 -106 -688h-17c-103.333 461.333 -155 772.666 -155 933.999h-8c-120.667 -54.667 -243.667 -93 -369 -115
c0 -229.333 112 -652.666 336 -1270c86 11.333 135 17 147 17c116 -6 225.333 -19.667 328 -41c49.333 104.667 95.666 230.334 138.999 377.001h17c21.333 -84.667 56.666 -186 105.999 -304l98 9h58c79.333 0 185.666 -11 318.999 -33
c142 364.667 213 621.334 213 770.001c22 87.333 44 256.666 66 507.999l-434 65c0 -356 -38.333 -648 -115 -876h-16c-104 506.667 -156 820.667 -156 942c-170.667 -76.667 -301.667 -115 -393 -115z" />
    <glyph glyph-name="x" unicode="x" horiz-adv-x="1509" 
d="M883 1337c-127.333 -278.667 -198.334 -418 -213.001 -418c-198 236 -302 356 -312 360l-360 -164c1.33301 -6.66699 173.333 -175.667 516 -507l-377 -631c299.333 28.667 463.333 47.667 492 57c91.333 210 143 316.667 155 320
c124.667 -179.333 198.667 -272.333 222 -279l434 131c-71.333 78 -232.666 239 -483.999 483l361 672z" />
    <glyph glyph-name="y" unicode="y" 
d="M573 847l-17 2c-36.667 174.667 -87 383 -151 625c-10 1.33301 -149.333 -36.334 -418 -113.001l395 -897c-20 -39.333 -117 -183.333 -291 -432l9 -2l448 -94c207.333 268.667 329 508.334 365 719.001c6.66699 4 81.667 246.333 225 727
c-262 -22 -406 -36.333 -432 -43c-84.667 -298 -129 -462 -133 -492z" />
    <glyph glyph-name="z" unicode="z" horiz-adv-x="1339" 
d="M529 1191c-92.667 0 -267.334 11 -524.001 33v-8c16.667 -260.667 27.667 -408 33 -442c116 -11.333 222.333 -17 319 -17h25c65.333 0 161 8.33301 287 25v-8c-82 -140.667 -243.333 -263.667 -484 -369c-49.333 -27.333 -74 -43.666 -74 -48.999
c27.333 -216 41 -333.333 41 -352h164c356.667 0 681.667 32.667 975 98v8c-39.333 247.333 -66.666 386.666 -81.999 417.999c-8 0 -174.333 -41 -499 -123v8c0 4 169 132.333 507 385c-65.333 265.333 -98 410 -98 434c-303.333 -27.333 -500 -41 -590 -41z" />
    <glyph glyph-name="braceleft" unicode="{" horiz-adv-x="862" 
d="M169 662h-16.001v-222h41c76.667 0 115 -103.667 115 -311c36.667 -191.333 77.667 -287 123 -287c44.667 -48.667 123.667 -73 237 -73h49c11.333 0 17 5.33301 17 16v287l-58 -9h-8c-60 0 -90 90.333 -90 271c0 65.333 -43.667 133.666 -131 204.999h-16v24
c94 20.667 148.333 146.334 163 377.001c0 71.333 24.667 107 74 107h8l58 -9v295h-66c-170.667 0 -280 -65.333 -328 -196c-20 -92 -39 -228.667 -57 -410c-31.333 -43.333 -69.666 -65 -114.999 -65z" />
    <glyph glyph-name="bar" unicode="|" horiz-adv-x="514" 
d="M198 1212l8 -32.001c0 -153.333 11 -661.333 33 -1524h164c22 872.667 33 1391.33 33 1556h-238z" />
    <glyph glyph-name="braceright" unicode="}" horiz-adv-x="876" 
d="M184 1145l-0.000976562 -295.001l16 8h74c36.667 0 61.334 -101 74.001 -303c16 -75.333 62.333 -138 139 -188v-9c-87.333 -48.667 -131 -106 -131 -172c-26 -190.667 -48 -286 -66 -286c0 -11.333 -16.333 -19.666 -49 -24.999c-10.667 0 -29.667 5.33301 -57 16v-303
c31.333 0 50.333 -2.66699 57 -8c144.667 0 245.667 46.333 303 139c54.667 114.667 82 265 82 451c22 60 65.667 90 131 90h9v213c-104 0 -156 90 -156 270c0 232.667 -90 366.667 -270 402h-156z" />
    <glyph glyph-name="asciitilde" unicode="~" horiz-adv-x="993" 
d="M135 573c76.667 -54 120.332 -81 130.999 -81c27.333 38 57.333 57 90 57c150 -38 267.333 -62.667 352 -74c71.333 0 139.666 46.333 204.999 139l-131 91c-17.333 -44 -44.666 -66 -81.999 -66c-195.333 49.333 -315.333 74 -360 74
c-75.333 0 -143.666 -46.667 -204.999 -140z" />
    <glyph glyph-name="brokenbar" unicode="&#xa6;" horiz-adv-x="339" 
d="M116 1288l-4 -80v-92c0 -30 -1.33301 -77.667 -4 -143l127 -35v8c2.66699 152 4 270 4 354v7c-49.333 -12.667 -90.333 -19 -123 -19zM102 629v-303c65.333 -22 105 -33 119 -33l6 14v12c0 70 1.33301 184.333 4 343c-86 -15.333 -129 -26.333 -129 -33z" />
    <glyph glyph-name="guillemotleft" unicode="&#xab;" horiz-adv-x="1414" 
d="M3 412l0.000976562 -161c10 -14.667 221.667 -134.667 635 -360v267c0 10 -107 39.333 -321 88v13c214 155.333 321 235.666 321 240.999l-39 441c-296.667 -255.333 -495.334 -431.666 -596.001 -528.999zM675.001 381v-162c10 -14.667 223.333 -135.667 640 -363v269
c0 10 -108 39.667 -324 89v13c216 156.667 324 237.667 324 243l-39 444c-298.667 -257.333 -499 -435 -601 -533z" />
    <glyph glyph-name="acute" unicode="&#xb4;" horiz-adv-x="645" 
d="M321 969c-4 -10 -74.334 -109.667 -211.001 -299l8 -2c28.667 -15.333 68.334 -44 119.001 -86c191.333 143.333 293 229.333 305 258c-135.333 82 -209 125 -221 129z" />
    <glyph glyph-name="guillemotright" unicode="&#xbb;" horiz-adv-x="1365" 
d="M723 969l-36.999 -441c0 -5.33301 102.667 -85.666 308 -240.999v-13c-205.333 -48.667 -308 -78 -308 -88v-267c396 225.333 599 345.333 609 360v161c-96.667 97.333 -287.334 273.666 -572.001 528.999zM74.001 942l-38 -444c0 -5.33301 103.667 -86.333 311 -243v-13
c-207.333 -49.333 -311 -79 -311 -89v-269c400 227.333 604.667 348.333 614 363v162c-97.333 98 -289.333 275.667 -576 533z" />
    <glyph glyph-name="afii10055" unicode="&#x406;" horiz-adv-x="575" 
d="M6 1274c66.667 -617.333 126.667 -1027.67 180 -1231c16.667 -36.667 25 -57 25 -61l330 69c-46.667 624 -61 1054.67 -43 1292z" />
    <glyph glyph-name="afii10056" unicode="&#x407;" horiz-adv-x="739" 
d="M147 1274c67.333 -617.333 127.667 -1027.67 181 -1231c16 -36.667 24 -57 24 -61l330 69c-46.667 624 -61 1054.67 -43 1292zM106.001 1489l-4 0.000976562h2c1.33301 0 4.5 0.666992 9.5 2s9.5 2.66602 13.5 3.99902s6.66699 3.33301 8 6v0
c-9.33301 -5.33301 -19 -9.33301 -29 -12zM147.001 1729c78 0 123 -36.332 135 -108.999v-10c0 -44 -25.667 -85 -77 -123c-24.667 -9.33301 -47.334 -14 -68.001 -14c-87.333 13.333 -131 44.666 -131 93.999v28c0 48 29.333 89 88 123c32.667 7.33301 50.334 11 53.001 11
zM444.001 1499l-4 0.000976562h2c1.33301 0 4.5 0.666992 9.5 2s9.5 2.66602 13.5 3.99902s6.66699 3.33301 8 6v0c-9.33301 -5.33301 -19 -9.33301 -29 -12zM485.001 1739c78 0 123 -36.332 135 -108.999v-10c0 -44 -25.667 -85 -77 -123
c-24.667 -9.33301 -47.334 -14 -68.001 -14c-87.333 13.333 -131 44.666 -131 93.999v29c0 47.333 29.333 88.333 88 123c32.667 6.66699 50.334 10 53.001 10z" />
    <glyph glyph-name="afii10017" unicode="&#x410;" horiz-adv-x="1308" 
d="M135 1468c-125.333 -573.333 -164 -1041.67 -116 -1405l8 -2c90 1.33301 209.333 -10 358 -34c36 -14 65.333 -23 88 -27c-26 187.333 -39.667 326 -41 416c64.667 17.333 161 22.666 289 15.999c11.333 -50.667 32.666 -218.667 63.999 -504
c331.333 98.667 501.333 147.334 510 146.001c-123.333 456 -298.333 915.333 -525 1378c-8 1.33301 -35.333 42.333 -82 123c-285.333 -88.667 -469.666 -124.334 -552.999 -107.001zM391 1182l9 -2c124 -154.667 216.667 -314.667 278 -480l-2 -16
c-126.667 8 -221.667 -3 -285 -33c-17.333 4 -25.333 94.333 -24 271c-1.33301 72 6.66699 158.667 24 260z" />
    <glyph glyph-name="afii10018" unicode="&#x411;" horiz-adv-x="1128" 
d="M773 1392c58.667 -8.66699 122.666 -25.666 191.999 -50.999c0 -1.33301 0.666992 -2 2 -2c-8 -40 -15.333 -84 -22 -132c-4 -25.333 -4.66699 -70.333 -2 -135c-1.33301 -1.33301 -105 6.33398 -311 23.001c-53.333 1.33301 -111.666 0.666016 -174.999 -2.00098
c-5.33301 -36 -5.33301 -107 0 -213c78 8 148.333 8 211 0l15 -2c150 -22 245.333 -57.667 286 -107c49.333 -34 83 -92.667 101 -176c12 -61.333 14.667 -113.333 8 -156v-10c-10.667 -74.667 -48.334 -150.334 -113.001 -227.001c-91.333 -70 -158.666 -113 -201.999 -129
c-164 -86 -388.667 -110 -674 -72l-74 10l-4 4l29 187l12 102c30 213.333 50.333 490 61 830c-1.33301 92.667 -5.33301 178.667 -12 258c82 16 160 24 234 24c150 2.66699 282.333 -3.33301 397 -18zM438.999 601.001
c-6.66699 -49.333 -9.33203 -152.997 -7.99902 -310.997h2c20.667 -2.66699 87.667 12.333 201 45c81.333 31.333 125 69.666 131 114.999c1.33301 0 2.66602 5.33301 3.99902 16l2 10c6.66699 45.333 -1.66602 76 -24.999 92c-24.667 19.333 -55.334 31.666 -92.001 36.999
l-39 4c-72 11.333 -130.667 8.66602 -176 -8.00098z" />
    <glyph glyph-name="afii10019" unicode="&#x412;" horiz-adv-x="1228" 
d="M-52 1495c120 -242 171.999 -740.335 155.999 -1495h82c353.333 -8.66699 647.333 88 882 290c74 98.667 111.667 193.667 113 285v41c4 173.333 -56 292 -180 356c-16.667 0 -25 5.66699 -25 17c61.333 58.667 93.333 145.334 96 260.001
c4 156.667 -69.667 262.334 -221 317.001c-57.333 16.667 -114.666 25.667 -171.999 27l-74 2c-148.667 4 -367.667 -29.333 -657 -100zM647.999 1292c54.667 -1.33301 92.335 -22.001 113.002 -62.001v-41c-2.66699 -72 -102.334 -132 -299.001 -180
c-16.667 48 -29 132.667 -37 254c67.333 20.667 141.666 30.334 222.999 29.001zM669 797.997l41.002 -0.000976562c82 -10.667 122.333 -44 121 -100v-33c-2.66699 -92.667 -111.334 -169.667 -326.001 -231c-9.33301 24.667 -23 134.334 -41 329.001
c49.333 26 117.666 37.667 204.999 35z" />
    <glyph glyph-name="afii10020" unicode="&#x413;" horiz-adv-x="1011" 
d="M537 45c-28.667 170.667 -65.333 490 -110 958c5.33301 0 8 3.66699 8 11c118.667 21.333 288.667 22 510 2l4 125c12.667 55.333 21.667 162.333 27 321c-140.667 10.667 -304 16 -490 16c-267.333 -10.667 -418 -16 -452 -16c-18 0 -27 -46.333 -27 -139v-78
c0 -330.667 24 -754 72 -1270z" />
    <glyph glyph-name="afii10021" unicode="&#x414;" horiz-adv-x="1288" 
d="M1297 614l2 3.99902c-1.33301 -1.33301 -2 -2.66602 -2 -3.99902zM515 27.999l2.00098 38.001c5.33301 105.333 7.33301 201 6 287c9.33301 196.667 49.666 407 120.999 631l16 -1c83.333 -423.333 121.333 -712.333 114 -867c178 59.333 305.333 89.333 382 90
c10 215.333 -83 610 -279 1184l-99 -3l-65 2c-86 3.33301 -189.333 17.666 -310 42.999c-115.333 -178 -221.333 -615 -318 -1311c-5.33301 0.666992 -8 -1.33301 -8 -6c10.667 -6 156.667 -35 438 -87zM22.001 -31c588.667 -6 981.667 2.66797 1179 26.001
c36.667 9.33301 57 14 61 14l-29 272c-591.333 23.333 -998 53.666 -1220 90.999z" />
    <glyph glyph-name="afii10022" unicode="&#x415;" horiz-adv-x="1052" 
d="M-40 1220c62.667 -240 114.002 -475.334 154.002 -706.001c36.667 -210.667 50.334 -383 41.001 -517c432.667 14 720 33.333 862 58c-16.667 95.333 -47.334 239.333 -92.001 432c-105.333 -34 -253 -75.667 -443 -125l-55 174l14 10l33 6c66.667 11.333 146 36 238 74
c-8.66699 14 -37.334 114.333 -86.001 301c-42.667 -24.667 -118 -54.667 -226 -90l-12 17l-4 30c-15.333 50.667 -26.333 96.334 -33 137.001c8 7.33301 18.333 11.666 31 12.999l106 18c52 10 152.333 21.667 301 35l-8 41c-13.333 79.333 -29 187.333 -47 324l-88 -15
c-208.667 -35.333 -437.334 -107.666 -686.001 -216.999z" />
    <glyph glyph-name="afii10024" unicode="&#x416;" horiz-adv-x="1818" 
d="M1324 1292c-57.333 -75.333 -136.667 -190 -238 -344l-14 -11h-8c9.33301 139.333 19 250 29 332l-459 -26c4 -175.333 8 -304.333 12 -387l27 -484c8 -186.667 25.667 -334 53 -442l313 45l-6 98c-4 83.333 -6.66699 198 -8 344l6 2c222.667 -262 340 -392.333 352 -391
c294 116 447 174 459 174c-13.333 19.333 -215.333 167 -606 443l-10 16c354.667 389.333 534 589.333 538 600c-20 -1.33301 -166.667 9 -440 31zM29.999 1214c2.66699 -10.667 160.333 -210.666 473 -599.999l-8 -16c-344.667 -276 -523 -423.667 -535 -443
c10.667 0 145 -58 403 -174c11.333 -1.33301 115.333 129 312 391l6 -2c-2.66699 -146 24 -233.333 80 -262l8 -53l123 59c57.333 -46 90 24.333 98 211l25 483c2.66699 83.333 6 212.666 10 387.999h-307c-56 -64.667 -80 -166.667 -72 -306h-8l-12 11
c-89.333 154 -159 268.667 -209 344c-240.667 -22 -369.667 -32.333 -387 -31z" />
    <glyph glyph-name="afii10025" unicode="&#x417;" horiz-adv-x="1116" 
d="M40 1383l-9.99902 -80c-5.33301 -157.333 -6.66602 -245.333 -3.99902 -264l35 -27c202 30 347.333 45 436 45h57c53.333 0 91.666 -19 114.999 -57v-25c0 -84.667 -148 -157 -444 -217c35.333 -42 29.666 -107 -17.001 -195c98.667 15.333 162.334 15.333 191.001 0
c46 -4 84.333 -27.667 115 -71v-49c0 -53.333 -150.333 -100 -451 -140c6.66699 -185.333 -7 -283.666 -41 -294.999c125.333 -27.333 234.666 -41 327.999 -41h106c274.667 0 433.667 76 477 228l21 63c13.333 154.667 -40.667 281 -162 379
c164 87.333 246 167.333 246 240c16 5.33301 27 65.333 33 180l-23 96c-18 67.333 -63.667 120.666 -137 159.999c-230.667 117.333 -497 148 -799 92z" />
    <glyph glyph-name="afii10026" unicode="&#x418;" horiz-adv-x="1163" 
d="M746 1312h-17c-111.333 -210 -213 -425.667 -305 -647h-16c10.667 128 32.334 308 65.001 540v9c-236 21.333 -376.333 32 -421 32c-22.667 0 -36 -101 -40 -303v-229c0 -238.667 5.33301 -460 16 -664l412 -41c23.333 105.333 106 315.666 248 630.999h17v-8
c0 -71.333 -27.667 -254.333 -83 -549c200.667 -22 313.667 -33 339 -33c65.333 247.333 128.333 594.333 189 1041c-16.667 18.667 -151.334 92.334 -404.001 221.001z" />
    <glyph glyph-name="afii10027" unicode="&#x419;" horiz-adv-x="1233" 
d="M769 1298l-14.999 -0.00195312c-114.667 -211.333 -218.667 -429 -312 -653h-18c12 129.333 34.333 311 67 545v8c-240 22 -383.333 33 -430 33c-23.333 0 -37 -102 -41 -306v-229c0 -241.333 5.66699 -464.666 17 -669.999l421 -41
c24 106.667 108.667 318.334 254 635.001h16v-8c0 -70.667 -28.333 -255 -85 -553c205.333 -22 321 -33 347 -33c67.333 248.667 131.666 598.334 192.999 1049c-16.667 19.333 -154.667 93.666 -414 222.999zM844.001 1583c-38 0 -135.999 -24.667 -293.999 -74
c-28.667 0 -50.334 22 -65.001 66l-106 -90c52.667 -93.333 108 -140 166 -140c68 11.333 162.667 36 284 74c28.667 0 53.667 -19 75 -57c8.66699 0 43.334 27.333 104.001 82c-48.667 92.667 -103.334 139 -164.001 139z" />
    <glyph glyph-name="afii10028" unicode="&#x41a;" horiz-adv-x="1333" 
d="M748 1358c-61.333 -75.333 -145.332 -189.333 -251.999 -342l-16 -10h-8c9.33301 137.333 19.333 247 30 329l-489 -26c4 -173.333 8 -301.666 12 -384.999l29 -484c9.33301 -185.333 28.333 -332 57 -440l334 45l-6 98c-4 83.333 -7.33301 197.333 -10 342l8 2
c237.333 -260.667 362.333 -390.334 375 -389.001c312.667 116 475.667 174 489 174c-14.667 19.333 -230.334 166.333 -647.001 441l-10 16c378 388 569 587.333 573 598c-22 -1.33301 -178.333 9 -469 31z" />
    <glyph glyph-name="afii10029" unicode="&#x41b;" horiz-adv-x="1093" 
d="M390 -75l2 40.999c6 114.667 9 218.667 9 312c10.667 212.667 52 439.667 124 681h17c80.667 -460 116 -774 106 -942c179.333 64.667 307 97 383 97c25.333 204 -64.667 632 -270 1284l-98 -2l-66 4c-86 4 -189 19.667 -309 47
c-116 -191.333 -225.333 -663.666 -328 -1417c-5.33301 0 -8 -2.66699 -8 -8c10.667 -6 156.667 -38.333 438 -97z" />
    <glyph glyph-name="afii10030" unicode="&#x41c;" horiz-adv-x="1589" 
d="M140 1065c-1.33301 1.33301 -2 3.33301 -2 6c0 -1.33301 0.666992 -3.33301 2 -6zM330 1155c0 1.33301 -0.333008 2.33301 -1 3s-1 1.66699 -1 3l-2 2zM-2 1074c22 -583.333 49.332 -930.331 81.999 -1041c224 22 336 38.333 336 49c-22 291.333 -33 463.666 -33 516.999
c5.33301 9.33301 8 20 8 32h17c92.667 -274 155.334 -484 188.001 -630h8c124.667 10.667 242 24 352 40c11.333 277.333 17 427.666 17 450.999l16 8h8c119.333 -336 185 -505.333 197 -508c125.333 45.333 245.333 105.666 360 180.999
c-43.333 286.667 -193.333 641.334 -450 1064c-204.667 -16 -346.667 -29.333 -426 -40c5.33301 -101.333 8 -175.333 8 -222v-319h-16c0 35.333 -79.333 251 -238 647c-289.333 -138 -434 -211.667 -434 -221v-8z" />
    <glyph glyph-name="afii10031" unicode="&#x41d;" 
d="M173 1395c-131.333 -584.667 -197.001 -1051.67 -197.001 -1401l360 -17v9c26 311.333 48 467 66 467h74c70.667 0 119.667 -5.66699 147 -17c-5.33301 -13.333 -21.666 -160.666 -48.999 -441.999l16 8c150.667 5.33301 268.334 8 353.001 8l73 -8
c71.333 554.667 118 991.667 140 1311h-9c-84.667 0 -218.334 -2.66699 -401.001 -8c-38 -288.667 -57 -450 -57 -484h-8c-148 6.66699 -222 20.334 -222 41.001l74 467c-174.667 44 -294.667 66 -360 66z" />
    <glyph glyph-name="afii10032" unicode="&#x41e;" horiz-adv-x="1419" 
d="M1 725c0 -243.333 119.999 -454.332 359.999 -632.999c102.667 -62.667 214.667 -94 336 -94h41c238 0 423.667 123.667 557 371c27.333 76 41 146.333 41 211v34c0 256.667 -114.667 465.667 -344 627c-103.333 53.333 -198.666 80 -285.999 80h-74
c-230.667 0 -422 -114 -574 -342c-38 -92.667 -57 -177.334 -57 -254.001zM598.999 936.001c110.667 0 206.333 -86.667 287 -260l8 -76c0 -105.333 -76.333 -172.333 -229 -201h-17c-130.667 0 -207 92.333 -229 277v51c16 139.333 76 209 180 209z" />
    <glyph glyph-name="afii10033" unicode="&#x41f;" horiz-adv-x="1132" 
d="M-19 1258c19.333 -198 32.332 -355.668 38.999 -473.001c8 -174.667 29 -424 63 -748l27 -106c28.667 12 79.834 26.833 153.501 44.5s125.167 19.334 154.5 5.00098s44 -14.5 44 -0.5c-38 444.667 -61.667 745 -71 901v14l-7 33c70 8 162.333 9.33301 277 4l160 -10
c-36 152.667 -54 277.667 -54 375c-129.333 36.667 -391.333 23.667 -786 -39zM314.999 1282c10.667 -96.667 8.66797 -223 -5.99902 -379l180 29c72 4 141 7.33301 207 10l6 -14l2 -14c9.33301 -157.333 23 -458.333 41 -903c121.333 5.33301 208.666 4.33301 261.999 -3
c16.667 -10.667 37 -13.334 61 -8.00098l13 111c-5.33301 324.667 -15 581.334 -29 770.001c-13.333 94 -20 245.667 -20 455c-591.333 -20.667 -830.333 -38.667 -717 -54z" />
    <glyph glyph-name="afii10034" unicode="&#x420;" horiz-adv-x="1173" 
d="M-12 1326c44 -453.333 65.999 -778.333 65.999 -975v-164c0 -28.667 -3 -75 -9 -139c191.333 -16.667 339 -35.667 443 -57c-27.333 240 -41 412 -41 516c10.667 5.33301 18.667 8 24 8c23.333 0 45.333 -2.66699 66 -8c288 0 479 112 573 336c22 86 33 154 33 204
c0 222.667 -150 354 -450 394c0 5.33301 -30.333 8 -91 8h-82c-189.333 0 -366.666 -41 -531.999 -123zM511.999 1129c142 -13.333 213 -59.665 213 -138.998v-8c0 -106.667 -79 -172.334 -237 -197.001h-33c-10.667 0 -16 8.33301 -16 25
c0 49.333 -8.33301 150.333 -25 303c9.33301 5.33301 42 10.666 98 15.999z" />
    <glyph glyph-name="afii10035" unicode="&#x421;" horiz-adv-x="1009" 
d="M7 697c36 -288 177.333 -501.666 424 -640.999c105.333 -47.333 215.333 -64.333 330 -51l25 4c77.333 8.66699 135.333 23.667 174 45l-15 56c-16 132 -7.66699 270.333 25 415h-8l-326 -106c-108 -12.667 -192 24 -252 110c-20.667 32 -37.667 76.667 -51 134
c-22 189.333 48.333 338 211 446c20.667 14 50 23.667 88 29c45.333 4 95 -1.66699 149 -17v9c-9.33301 73.333 33 196.666 127 369.999c-117.333 19.333 -227 22.666 -329 9.99902l-17 -2c-320.667 -39.333 -505.667 -240.666 -555 -603.999
c-9.33301 -53.333 -9.33301 -122.333 0 -207z" />
    <glyph glyph-name="afii10036" unicode="&#x422;" horiz-adv-x="1268" 
d="M9 1076l0.000976562 -107c125.333 32.667 234.666 49 327.999 49c38 -245.333 57 -559.333 57 -942v-114c30 -6 52 -9 66 -9c207.333 11.333 311 25 311 41c-11.333 513.333 -17 860.333 -17 1041v16l9 16c70.667 -10.667 166 -16 286 -16h164
c-27.333 177.333 -46.333 341.333 -57 492c-118.667 0 -484.667 -35.667 -1098 -107c-32.667 -84.667 -49 -204.667 -49 -360z" />
    <glyph glyph-name="afii10037" unicode="&#x423;" 
d="M573 847l-17 2c-36.667 174.667 -87 383 -151 625c-10 1.33301 -149.333 -36.334 -418 -113.001l395 -897c-20 -39.333 -117 -183.333 -291 -432l9 -2l448 -94c207.333 268.667 329 508.334 365 719.001c6.66699 4 81.667 246.333 225 727
c-262 -22 -406 -36.333 -432 -43c-84.667 -298 -129 -462 -133 -492z" />
    <glyph glyph-name="afii10038" unicode="&#x424;" horiz-adv-x="1244" 
d="M715 1331l-272.998 25c-64.667 12.667 -142.834 -4.66602 -234.501 -51.999s-160.167 -130 -205.5 -248c-30 -110.667 -30.333 -224.334 -1 -341.001c58 -103.333 131.167 -173.166 219.5 -209.499l162.5 -66.5c-14.667 -96.667 -53 -249.334 -115 -458.001
c155.333 26.667 301.666 30 438.999 10c0.666992 35.333 -1 69.333 -5 102l15 151c16.667 193.333 5 507.333 -35 942c4.66699 90 15.667 138.333 33 145zM498.002 1007c-20.667 -125.333 -37.332 -211.667 -49.999 -259c-2 -14 -7.33301 -20.667 -16 -20l-26 3
c-122.667 34.667 -178.667 98 -168 190l1 7c8 68.667 69 102.667 183 102c43.333 -9.33301 68.666 -17 75.999 -23zM483.004 1343c32.667 -217.333 46.9961 -531.001 42.9961 -941.001l-12 -208c-147.333 -47.333 -172 -76.666 -74 -87.999
c40.667 -64.667 105.334 -94 194.001 -88c-3.33301 172 1.33398 307.667 14.001 407c9.33301 4 16.333 5.66699 21 5c18 -2 34.667 -7 50 -15c226.667 -32 391.334 53.667 494.001 257c28 80 39.333 143.667 34 191c-10 214.667 -105.667 357.334 -287 428.001
c0.666992 5.33301 -22.333 11.333 -69 18l-65 9c-149.333 21.333 -263.666 29.666 -342.999 24.999zM842 991.998c114 -28 166.334 -75.332 157.001 -141.999l-1 -7c-12 -90 -83.667 -136.333 -215 -139l-27 4c-8.66699 1.33301 -12.334 8.66602 -11.001 21.999
c6 42 11 128.333 15 259c8 4 35.333 5 82 3z" />
    <glyph glyph-name="afii10039" unicode="&#x425;" horiz-adv-x="1509" 
d="M883 1337c-127.333 -278.667 -198.334 -418 -213.001 -418c-198 236 -302 356 -312 360l-360 -164c1.33301 -6.66699 173.333 -175.667 516 -507l-377 -631c299.333 28.667 463.333 47.667 492 57c91.333 210 143 316.667 155 320
c124.667 -179.333 198.667 -272.333 222 -279l434 131c-71.333 78 -232.666 239 -483.999 483l361 672z" />
    <glyph glyph-name="afii10040" unicode="&#x426;" horiz-adv-x="1134" 
d="M973 1322c6 0 9.00098 -104.668 9.00098 -314.001v-138c0 -82.667 -4 -290.667 -12 -624c64 -14 119.667 -24.333 167 -31v-2c-14.667 -69.333 -22 -140.666 -22 -213.999v-48l1 -17l-3 -2c-185.333 48.667 -312.333 73 -381 73h-5c0 5.33301 -61 8.33301 -183 9h-5
c-112 0 -255.333 -9 -430 -27c-8 24.667 -26.333 121.667 -55 291c-35.333 202 -71 506.333 -107 913c0 0.666992 0.666992 1 2 1c63.333 -10 118.666 -15 165.999 -15c44.667 0 96 7 154 21c19.333 -51.333 44.666 -153.666 75.999 -306.999
c10.667 -58 27.334 -187.333 50.001 -388h1l194 48c-32.667 279.333 -65 517.666 -97 714.999c60 11.333 205.333 29.333 436 54c19.333 1.33301 34 2 44 2z" />
    <glyph glyph-name="afii10041" unicode="&#x427;" horiz-adv-x="1132" 
d="M693 1387c-66.667 -695.333 -105 -1150 -115 -1364l9 -51c113.333 24 230 17 350 -21c86 640.667 143.333 1106.33 172 1397zM687 1389l-36.999 -522l-18 -74c0 -108 -13 -164 -39 -168c-64.667 23.333 -120 54.666 -166 93.999c-26 20.667 -41.667 39.667 -47 57
c48.667 292.667 91 502.334 127 629.001l-228 76l-104 37l-12 -35c-104 -468.667 -137 -780 -99 -934c72.667 -90 176.667 -159.667 312 -209c348 -91.333 495.333 -34.666 442 170.001c32.667 53.333 53.667 94.333 63 123c71.333 220 113.666 465.667 126.999 737
c-94 -2.66699 -201 3.66602 -321 18.999z" />
    <glyph glyph-name="afii10042" unicode="&#x428;" horiz-adv-x="1531" 
d="M148 -49c266.667 46.667 526.333 76.666 779 89.999c232 14 420.333 1 565 -39c23.333 635.333 28 1058.67 14 1270c-105.333 -5.33301 -264.333 -22.333 -477 -51c27.333 -160 59.333 -383.333 96 -670l-194 -47l-11 23l-2 49
c-6.66699 99.333 -26.334 219.333 -59.001 360c-15.333 -9.33301 -126.666 -31.666 -333.999 -66.999c23.333 -67.333 49.333 -182.666 78 -345.999l-21 -17h-32c-56 -12 -106.667 -18.667 -152 -20c-6.66699 13.333 -10 29 -10 47l-10 160c-6 76 -10.333 224 -13 444
l-45 -4c-86 -4 -204 -6 -354 -6l8 -131c19.333 -312.667 77.333 -661 174 -1045z" />
    <glyph glyph-name="afii10043" unicode="&#x429;" horiz-adv-x="1685" 
d="M1516 1339c4 0 6.66504 -83.001 7.99805 -249.001v-156c0 -131.333 -4 -347 -12 -647h2c90 -19.333 144 -29 162 -29v-2c-15.333 -68 -23 -147.333 -23 -238v-22l2 -16c-1.33301 0 -2 -1 -2 -3c-178.667 49.333 -307 74 -385 74c0 4 -52.667 6.66699 -158 8
c-204.667 0 -469.334 -24.333 -794.001 -73c-98.667 -16.667 -150 -25 -154 -25c-65.333 272 -112.333 526 -141 762c-15.333 108 -25 200.667 -29 278l-10 185h4c200.667 0 330.334 4 389.001 12l4 -6v-6c0 -202 8.33301 -418.333 25 -649l8 -21c27.333 0 77.333 7 150 21
h34l21 18c-23.333 148.667 -48.666 268 -75.999 358c0 6 25.333 11.667 76 17c110.667 22 195.334 40.333 254.001 55c2.66699 0 15.667 -62 39 -186c14.667 -110.667 22 -190.667 22 -240c7.33301 -13.333 11 -20.666 11 -21.999l196 49
c-35.333 293.333 -67.333 526 -96 698c0 1.33301 66.333 10.333 199 27c150 18.667 241.333 28 274 28z" />
    <glyph glyph-name="afii10044" unicode="&#x42a;" horiz-adv-x="1103" 
d="M549 -8l70.0029 4c50 2 75 6 75 12c251.333 52 373 188 365 408c-2 50.667 -13.667 118 -35 202c-87.333 217.333 -252.333 320 -495 308c-16.667 -6.66699 -35 -10.334 -55 -11.001c-4.66699 0 -11.667 2.33301 -21 7c-3.33301 103.333 2 274.333 16 513
c-84.667 -31.333 -208.334 -56.666 -371.001 -75.999c7.33301 -63.333 11.666 -109 12.999 -137l5 -163c7.33301 -194.667 0.666016 -517 -20.001 -967c142.667 -74.667 293.667 -108 453 -100zM448.003 321c8 152 11.333 252 10 300c-0.666992 16 3.33301 24.333 12 25
l28 2c134.667 -18 203.667 -79.667 207 -185v-7c2.66699 -79.333 -55.333 -128.666 -174 -147.999c-47.333 3.33301 -75 7.66602 -83 12.999zM-21.9971 991c231.333 21.333 383.001 68 455.001 140c13.333 11.333 21 17 23 17l6 277c-170 -52 -327.667 -73 -473 -63
c13.333 -125.333 9.66602 -249 -11.001 -371z" />
    <glyph glyph-name="afii10045" unicode="&#x42b;" horiz-adv-x="1458" 
d="M933 1259c60 -587.333 114 -977.667 162 -1171c15.333 -35.333 23 -55.333 23 -60l299 67c-42 594 -55 1004.33 -39 1231zM467 -3.00098l67.001 2.99609c50 2.66699 74.667 6.33398 74 11.001c246 47.333 365.333 171.333 358 372c-2 45.333 -13.667 106 -35 182
c-86 198.667 -247.333 292.334 -484 281.001c-16.667 -5.33301 -34.667 -8.66602 -54 -9.99902c-4.66699 0 -11.334 2 -20.001 6c-4 94 1 249.667 15 467c-84.667 -24 -205.334 -47.333 -362.001 -70c6.66699 -56.667 10.667 -98 12 -124l5 -148
c7.33301 -177.333 1 -470.666 -19 -879.999c138.667 -67.333 286.334 -97.333 443.001 -90zM367.001 294.995c8 138.667 11.001 230 9.00098 274c-0.666992 15.333 3.66602 23 12.999 23l27 1c131.333 -16 199 -71.667 203 -167l1 -7c2 -72 -55.333 -117 -172 -135
c-46 3.33301 -73 7 -81 11z" />
    <glyph glyph-name="afii10046" unicode="&#x42c;" horiz-adv-x="1024" 
d="M538 -2l68.002 10c50 6.66699 74.667 12.667 74 18c244.667 74 353 217.333 325 430c-6.66699 48 -24.334 111.667 -53.001 191c-106.667 202.667 -279.667 286.667 -519 252c-16 -8 -33.667 -13.333 -53 -16c-4.66699 -0.666992 -12 1 -22 5
c-12.667 99.333 -23 265.333 -31 498c-83.333 -33.333 -203.333 -69.333 -360 -108c12.667 -60.667 20.667 -104.667 24 -132l21 -157c24.667 -187.333 47.667 -500 69 -938c147.333 -58 299.666 -75.667 456.999 -53zM408.002 306
c-6 147.333 -11.999 244.668 -17.999 292.001c-2 15.333 1.33301 23.666 10 24.999l27 4c134.667 -4.66699 209 -57.667 223 -159l1 -8c10 -75.333 -43.333 -128 -160 -158c-46.667 -2 -74.334 -0.666992 -83.001 4z" />
    <glyph glyph-name="afii10047" unicode="&#x42d;" horiz-adv-x="1038" 
d="M991 818c-50.667 347.333 -239.669 539.999 -567.002 577.999l-19 2c-103.333 12 -215.333 8.66699 -336 -10c96 -166 139.333 -284.333 130 -355v-7c55.333 14 106.333 19 153 15c38 -5.33301 68 -14.666 90 -27.999c166.667 -102.667 238.334 -245 215.001 -427
c-13.333 -54.667 -30.333 -97 -51 -127c-61.333 -82.667 -147.333 -118.334 -258 -107.001l-334 103h-8c34 -138.667 42.333 -271.667 25 -399l-15 -52c40 -21.333 99.333 -35.666 178 -42.999l25 -5c117.333 -12.667 230 4 338 50c252.667 133.333 397.334 338 434.001 614
c9.33301 80.667 9.33301 146.667 0 198zM390.998 540.999c87.333 27.333 254.669 50 502.002 68l-39 185c-2.66699 0 -12.334 2.66699 -29.001 8c-88.667 16 -257.334 19.667 -506.001 11z" />
    <glyph glyph-name="afii10048" unicode="&#x42e;" horiz-adv-x="1797" 
d="M584 769c-27.333 -269.333 54.002 -514.335 244.002 -735.002c82.667 -79.333 177 -124.666 283 -135.999l37 -4c208 -22 384.667 97.333 530 358c32 82.667 51.667 159.334 59 230.001l4 39c29.333 284.667 -47.334 527 -230.001 727
c-84.667 68.667 -165.334 106.667 -242.001 114l-64 7c-202.667 22 -383.334 -86 -542.001 -324c-43.333 -100 -69.666 -192 -78.999 -276zM1132 929.998c97.333 -10 171.333 -115 222 -315l-2 -84c-12 -116.667 -86.333 -183.667 -223 -201l-15 2
c-114.667 12 -171 121 -169 327l6 57c30 152.667 90.333 224 181 214zM112.002 1435c-44.667 -676.667 -59.002 -1129.67 -43.002 -1359c10.667 -42.667 15.334 -66 14.001 -70l342 10c66.667 680.667 130.334 1147 191.001 1399zM210 478.998
c317.333 26.667 528.667 53.999 634 81.999c19.333 9.33301 30 14 32 14l-32 206c-320.667 -13.333 -542 -11.666 -664 5.00098z" />
    <glyph glyph-name="afii10049" unicode="&#x42f;" horiz-adv-x="1222" 
d="M645 1410h-95.001c-72 0 -146 -10.667 -222 -32c-193.333 -64.667 -290 -183.667 -290 -357c0 -176.667 63 -314 189 -412v-15l-54 -87c-92.667 -216.667 -140.334 -364.667 -143.001 -444v-8c188.667 -26 328 -52.333 418 -79c73.333 354 118 531 134 531h112l15 -8
c-5.33301 -124 -19 -290.333 -41 -499c86 20.667 228 39 426 55c-5.33301 46.667 -10.666 126 -15.999 238c0 174 24 509.333 72 1006c-181.333 74 -349.666 111 -504.999 111zM739.999 1085c-17.333 -211.333 -32.666 -317.001 -45.999 -317.001h-26
c-127.333 0 -203.333 63.333 -228 190v16c17.333 84.667 85.666 127 204.999 127c57.333 -5.33301 89 -10.666 95 -15.999z" />
    <glyph glyph-name="afii10065" unicode="&#x430;" horiz-adv-x="1308" 
d="M135 1468c-125.333 -573.333 -164 -1041.67 -116 -1405l8 -2c90 1.33301 209.333 -10 358 -34c36 -14 65.333 -23 88 -27c-26 187.333 -39.667 326 -41 416c64.667 17.333 161 22.666 289 15.999c11.333 -50.667 32.666 -218.667 63.999 -504
c331.333 98.667 501.333 147.334 510 146.001c-123.333 456 -298.333 915.333 -525 1378c-8 1.33301 -35.333 42.333 -82 123c-285.333 -88.667 -469.666 -124.334 -552.999 -107.001zM391 1182l9 -2c124 -154.667 216.667 -314.667 278 -480l-2 -16
c-126.667 8 -221.667 -3 -285 -33c-17.333 4 -25.333 94.333 -24 271c-1.33301 72 6.66699 158.667 24 260z" />
    <glyph glyph-name="afii10066" unicode="&#x431;" horiz-adv-x="1128" 
d="M773 1392c58.667 -8.66699 122.666 -25.666 191.999 -50.999c0 -1.33301 0.666992 -2 2 -2c-8 -40 -15.333 -84 -22 -132c-4 -25.333 -4.66699 -70.333 -2 -135c-1.33301 -1.33301 -105 6.33398 -311 23.001c-53.333 1.33301 -111.666 0.666016 -174.999 -2.00098
c-5.33301 -36 -5.33301 -107 0 -213c78 8 148.333 8 211 0l15 -2c150 -22 245.333 -57.667 286 -107c49.333 -34 83 -92.667 101 -176c12 -61.333 14.667 -113.333 8 -156v-10c-10.667 -74.667 -48.334 -150.334 -113.001 -227.001c-91.333 -70 -158.666 -113 -201.999 -129
c-164 -86 -388.667 -110 -674 -72l-74 10l-4 4l29 187l12 102c30 213.333 50.333 490 61 830c-1.33301 92.667 -5.33301 178.667 -12 258c82 16 160 24 234 24c150 2.66699 282.333 -3.33301 397 -18zM438.999 601.001
c-6.66699 -49.333 -9.33203 -152.997 -7.99902 -310.997h2c20.667 -2.66699 87.667 12.333 201 45c81.333 31.333 125 69.666 131 114.999c1.33301 0 2.66602 5.33301 3.99902 16l2 10c6.66699 45.333 -1.66602 76 -24.999 92c-24.667 19.333 -55.334 31.666 -92.001 36.999
l-39 4c-72 11.333 -130.667 8.66602 -176 -8.00098z" />
    <glyph glyph-name="afii10067" unicode="&#x432;" horiz-adv-x="1228" 
d="M-52 1495c120 -242 171.999 -740.335 155.999 -1495h82c353.333 -8.66699 647.333 88 882 290c74 98.667 111.667 193.667 113 285v41c4 173.333 -56 292 -180 356c-16.667 0 -25 5.66699 -25 17c61.333 58.667 93.333 145.334 96 260.001
c4 156.667 -69.667 262.334 -221 317.001c-57.333 16.667 -114.666 25.667 -171.999 27l-74 2c-148.667 4 -367.667 -29.333 -657 -100zM647.999 1292c54.667 -1.33301 92.335 -22.001 113.002 -62.001v-41c-2.66699 -72 -102.334 -132 -299.001 -180
c-16.667 48 -29 132.667 -37 254c67.333 20.667 141.666 30.334 222.999 29.001zM669 797.997l41.002 -0.000976562c82 -10.667 122.333 -44 121 -100v-33c-2.66699 -92.667 -111.334 -169.667 -326.001 -231c-9.33301 24.667 -23 134.334 -41 329.001
c49.333 26 117.666 37.667 204.999 35z" />
    <glyph glyph-name="afii10068" unicode="&#x433;" horiz-adv-x="1011" 
d="M537 45c-28.667 170.667 -65.333 490 -110 958c5.33301 0 8 3.66699 8 11c118.667 21.333 288.667 22 510 2l4 125c12.667 55.333 21.667 162.333 27 321c-140.667 10.667 -304 16 -490 16c-267.333 -10.667 -418 -16 -452 -16c-18 0 -27 -46.333 -27 -139v-78
c0 -330.667 24 -754 72 -1270z" />
    <glyph glyph-name="afii10069" unicode="&#x434;" horiz-adv-x="1288" 
d="M1297 614l2 3.99902c-1.33301 -1.33301 -2 -2.66602 -2 -3.99902zM515 27.999l2.00098 38.001c5.33301 105.333 7.33301 201 6 287c9.33301 196.667 49.666 407 120.999 631l16 -1c83.333 -423.333 121.333 -712.333 114 -867c178 59.333 305.333 89.333 382 90
c10 215.333 -83 610 -279 1184l-99 -3l-65 2c-86 3.33301 -189.333 17.666 -310 42.999c-115.333 -178 -221.333 -615 -318 -1311c-5.33301 0.666992 -8 -1.33301 -8 -6c10.667 -6 156.667 -35 438 -87zM22.001 -31c588.667 -6 981.667 2.66797 1179 26.001
c36.667 9.33301 57 14 61 14l-29 272c-591.333 23.333 -998 53.666 -1220 90.999z" />
    <glyph glyph-name="afii10070" unicode="&#x435;" horiz-adv-x="1052" 
d="M-40 1220c62.667 -240 114.002 -475.334 154.002 -706.001c36.667 -210.667 50.334 -383 41.001 -517c432.667 14 720 33.333 862 58c-16.667 95.333 -47.334 239.333 -92.001 432c-105.333 -34 -253 -75.667 -443 -125l-55 174l14 10l33 6c66.667 11.333 146 36 238 74
c-8.66699 14 -37.334 114.333 -86.001 301c-42.667 -24.667 -118 -54.667 -226 -90l-12 17l-4 30c-15.333 50.667 -26.333 96.334 -33 137.001c8 7.33301 18.333 11.666 31 12.999l106 18c52 10 152.333 21.667 301 35l-8 41c-13.333 79.333 -29 187.333 -47 324l-88 -15
c-208.667 -35.333 -437.334 -107.666 -686.001 -216.999z" />
    <glyph glyph-name="afii10072" unicode="&#x436;" horiz-adv-x="1818" 
d="M1324 1292c-57.333 -75.333 -136.667 -190 -238 -344l-14 -11h-8c9.33301 139.333 19 250 29 332l-459 -26c4 -175.333 8 -304.333 12 -387l27 -484c8 -186.667 25.667 -334 53 -442l313 45l-6 98c-4 83.333 -6.66699 198 -8 344l6 2c222.667 -262 340 -392.333 352 -391
c294 116 447 174 459 174c-13.333 19.333 -215.333 167 -606 443l-10 16c354.667 389.333 534 589.333 538 600c-20 -1.33301 -166.667 9 -440 31zM29.999 1214c2.66699 -10.667 160.333 -210.666 473 -599.999l-8 -16c-344.667 -276 -523 -423.667 -535 -443
c10.667 0 145 -58 403 -174c11.333 -1.33301 115.333 129 312 391l6 -2c-2.66699 -146 24 -233.333 80 -262l8 -53l123 59c57.333 -46 90 24.333 98 211l25 483c2.66699 83.333 6 212.666 10 387.999h-307c-56 -64.667 -80 -166.667 -72 -306h-8l-12 11
c-89.333 154 -159 268.667 -209 344c-240.667 -22 -369.667 -32.333 -387 -31z" />
    <glyph glyph-name="afii10073" unicode="&#x437;" horiz-adv-x="1116" 
d="M40 1383l-9.99902 -80c-5.33301 -157.333 -6.66602 -245.333 -3.99902 -264l35 -27c202 30 347.333 45 436 45h57c53.333 0 91.666 -19 114.999 -57v-25c0 -84.667 -148 -157 -444 -217c35.333 -42 29.666 -107 -17.001 -195c98.667 15.333 162.334 15.333 191.001 0
c46 -4 84.333 -27.667 115 -71v-49c0 -53.333 -150.333 -100 -451 -140c6.66699 -185.333 -7 -283.666 -41 -294.999c125.333 -27.333 234.666 -41 327.999 -41h106c274.667 0 433.667 76 477 228l21 63c13.333 154.667 -40.667 281 -162 379
c164 87.333 246 167.333 246 240c16 5.33301 27 65.333 33 180l-23 96c-18 67.333 -63.667 120.666 -137 159.999c-230.667 117.333 -497 148 -799 92z" />
    <glyph glyph-name="afii10074" unicode="&#x438;" horiz-adv-x="1163" 
d="M746 1312h-17c-111.333 -210 -213 -425.667 -305 -647h-16c10.667 128 32.334 308 65.001 540v9c-236 21.333 -376.333 32 -421 32c-22.667 0 -36 -101 -40 -303v-229c0 -238.667 5.33301 -460 16 -664l412 -41c23.333 105.333 106 315.666 248 630.999h17v-8
c0 -71.333 -27.667 -254.333 -83 -549c200.667 -22 313.667 -33 339 -33c65.333 247.333 128.333 594.333 189 1041c-16.667 18.667 -151.334 92.334 -404.001 221.001z" />
    <glyph glyph-name="afii10075" unicode="&#x439;" horiz-adv-x="1233" 
d="M769 1298l-14.999 -0.00195312c-114.667 -211.333 -218.667 -429 -312 -653h-18c12 129.333 34.333 311 67 545v8c-240 22 -383.333 33 -430 33c-23.333 0 -37 -102 -41 -306v-229c0 -241.333 5.66699 -464.666 17 -669.999l421 -41
c24 106.667 108.667 318.334 254 635.001h16v-8c0 -70.667 -28.333 -255 -85 -553c205.333 -22 321 -33 347 -33c67.333 248.667 131.666 598.334 192.999 1049c-16.667 19.333 -154.667 93.666 -414 222.999zM844.001 1583c-38 0 -135.999 -24.667 -293.999 -74
c-28.667 0 -50.334 22 -65.001 66l-106 -90c52.667 -93.333 108 -140 166 -140c68 11.333 162.667 36 284 74c28.667 0 53.667 -19 75 -57c8.66699 0 43.334 27.333 104.001 82c-48.667 92.667 -103.334 139 -164.001 139z" />
    <glyph glyph-name="afii10076" unicode="&#x43a;" horiz-adv-x="1333" 
d="M748 1358c-61.333 -75.333 -145.332 -189.333 -251.999 -342l-16 -10h-8c9.33301 137.333 19.333 247 30 329l-489 -26c4 -173.333 8 -301.666 12 -384.999l29 -484c9.33301 -185.333 28.333 -332 57 -440l334 45l-6 98c-4 83.333 -7.33301 197.333 -10 342l8 2
c237.333 -260.667 362.333 -390.334 375 -389.001c312.667 116 475.667 174 489 174c-14.667 19.333 -230.334 166.333 -647.001 441l-10 16c378 388 569 587.333 573 598c-22 -1.33301 -178.333 9 -469 31z" />
    <glyph glyph-name="afii10077" unicode="&#x43b;" horiz-adv-x="1093" 
d="M390 -75l2 40.999c6 114.667 9 218.667 9 312c10.667 212.667 52 439.667 124 681h17c80.667 -460 116 -774 106 -942c179.333 64.667 307 97 383 97c25.333 204 -64.667 632 -270 1284l-98 -2l-66 4c-86 4 -189 19.667 -309 47
c-116 -191.333 -225.333 -663.666 -328 -1417c-5.33301 0 -8 -2.66699 -8 -8c10.667 -6 156.667 -38.333 438 -97z" />
    <glyph glyph-name="afii10078" unicode="&#x43c;" horiz-adv-x="1589" 
d="M140 1065c-1.33301 1.33301 -2 3.33301 -2 6c0 -1.33301 0.666992 -3.33301 2 -6zM330 1155c0 1.33301 -0.333008 2.33301 -1 3s-1 1.66699 -1 3l-2 2zM-2 1074c22 -583.333 49.332 -930.331 81.999 -1041c224 22 336 38.333 336 49c-22 291.333 -33 463.666 -33 516.999
c5.33301 9.33301 8 20 8 32h17c92.667 -274 155.334 -484 188.001 -630h8c124.667 10.667 242 24 352 40c11.333 277.333 17 427.666 17 450.999l16 8h8c119.333 -336 185 -505.333 197 -508c125.333 45.333 245.333 105.666 360 180.999
c-43.333 286.667 -193.333 641.334 -450 1064c-204.667 -16 -346.667 -29.333 -426 -40c5.33301 -101.333 8 -175.333 8 -222v-319h-16c0 35.333 -79.333 251 -238 647c-289.333 -138 -434 -211.667 -434 -221v-8z" />
    <glyph glyph-name="afii10079" unicode="&#x43d;" 
d="M176 1398c-131.333 -584.667 -197.001 -1051.67 -197.001 -1401l360 -17v9c26 311.333 48 467 66 467h74c70.667 0 119.667 -5.66699 147 -17c-5.33301 -13.333 -21.666 -160.666 -48.999 -441.999l16 8c150.667 5.33301 268.334 8 353.001 8l73 -8
c71.333 554.667 118 991.667 140 1311h-9c-84.667 0 -218.334 -2.66699 -401.001 -8c-38 -288.667 -57 -450 -57 -484h-8c-148 6.66699 -222 20.334 -222 41.001l74 467c-174.667 44 -294.667 66 -360 66z" />
    <glyph glyph-name="afii10080" unicode="&#x43e;" horiz-adv-x="1419" 
d="M1 725c0 -243.333 119.999 -454.332 359.999 -632.999c102.667 -62.667 214.667 -94 336 -94h41c238 0 423.667 123.667 557 371c27.333 76 41 146.333 41 211v34c0 256.667 -114.667 465.667 -344 627c-103.333 53.333 -198.666 80 -285.999 80h-74
c-230.667 0 -422 -114 -574 -342c-38 -92.667 -57 -177.334 -57 -254.001zM598.999 936.001c110.667 0 206.333 -86.667 287 -260l8 -76c0 -105.333 -76.333 -172.333 -229 -201h-17c-130.667 0 -207 92.333 -229 277v51c16 139.333 76 209 180 209z" />
    <glyph glyph-name="afii10081" unicode="&#x43f;" horiz-adv-x="1132" 
d="M-19 1258c19.333 -198 32.332 -355.668 38.999 -473.001c8 -174.667 29 -424 63 -748l27 -106c28.667 12 79.834 26.833 153.501 44.5s125.167 19.334 154.5 5.00098s44 -14.5 44 -0.5c-38 444.667 -61.667 745 -71 901v14l-7 33c70 8 162.333 9.33301 277 4l160 -10
c-36 152.667 -54 277.667 -54 375c-129.333 36.667 -391.333 23.667 -786 -39zM314.999 1282c10.667 -96.667 8.66797 -223 -5.99902 -379l180 29c72 4 141 7.33301 207 10l6 -14l2 -14c9.33301 -157.333 23 -458.333 41 -903c121.333 5.33301 208.666 4.33301 261.999 -3
c16.667 -10.667 37 -13.334 61 -8.00098l13 111c-5.33301 324.667 -15 581.334 -29 770.001c-13.333 94 -20 245.667 -20 455c-591.333 -20.667 -830.333 -38.667 -717 -54z" />
    <glyph glyph-name="afii10082" unicode="&#x440;" horiz-adv-x="1173" 
d="M-12 1326c44 -453.333 65.999 -778.333 65.999 -975v-164c0 -28.667 -3 -75 -9 -139c191.333 -16.667 339 -35.667 443 -57c-27.333 240 -41 412 -41 516c10.667 5.33301 18.667 8 24 8c23.333 0 45.333 -2.66699 66 -8c288 0 479 112 573 336c22 86 33 154 33 204
c0 222.667 -150 354 -450 394c0 5.33301 -30.333 8 -91 8h-82c-189.333 0 -366.666 -41 -531.999 -123zM511.999 1129c142 -13.333 213 -59.665 213 -138.998v-8c0 -106.667 -79 -172.334 -237 -197.001h-33c-10.667 0 -16 8.33301 -16 25
c0 49.333 -8.33301 150.333 -25 303c9.33301 5.33301 42 10.666 98 15.999z" />
    <glyph glyph-name="afii10083" unicode="&#x441;" horiz-adv-x="1009" 
d="M7 697c36 -288 177.333 -501.666 424 -640.999c105.333 -47.333 215.333 -64.333 330 -51l25 4c77.333 8.66699 135.333 23.667 174 45l-15 56c-16 132 -7.66699 270.333 25 415h-8l-326 -106c-108 -12.667 -192 24 -252 110c-20.667 32 -37.667 76.667 -51 134
c-22 189.333 48.333 338 211 446c20.667 14 50 23.667 88 29c45.333 4 95 -1.66699 149 -17v9c-9.33301 73.333 33 196.666 127 369.999c-117.333 19.333 -227 22.666 -329 9.99902l-17 -2c-320.667 -39.333 -505.667 -240.666 -555 -603.999
c-9.33301 -53.333 -9.33301 -122.333 0 -207z" />
    <glyph glyph-name="afii10084" unicode="&#x442;" horiz-adv-x="1268" 
d="M9 1076l0.000976562 -107c125.333 32.667 234.666 49 327.999 49c38 -245.333 57 -559.333 57 -942v-114c30 -6 52 -9 66 -9c207.333 11.333 311 25 311 41c-11.333 513.333 -17 860.333 -17 1041v16l9 16c70.667 -10.667 166 -16 286 -16h164
c-27.333 177.333 -46.333 341.333 -57 492c-118.667 0 -484.667 -35.667 -1098 -107c-32.667 -84.667 -49 -204.667 -49 -360z" />
    <glyph glyph-name="afii10085" unicode="&#x443;" 
d="M573 847l-17 2c-36.667 174.667 -87 383 -151 625c-10 1.33301 -149.333 -36.334 -418 -113.001l395 -897c-20 -39.333 -117 -183.333 -291 -432l9 -2l448 -94c207.333 268.667 329 508.334 365 719.001c6.66699 4 81.667 246.333 225 727
c-262 -22 -406 -36.333 -432 -43c-84.667 -298 -129 -462 -133 -492z" />
    <glyph glyph-name="afii10086" unicode="&#x444;" horiz-adv-x="1244" 
d="M715 1331l-272.998 25c-64.667 12.667 -142.834 -4.66602 -234.501 -51.999s-160.167 -130 -205.5 -248c-30 -110.667 -30.333 -224.334 -1 -341.001c58 -103.333 131.167 -173.166 219.5 -209.499l162.5 -66.5c-14.667 -96.667 -53 -249.334 -115 -458.001
c155.333 26.667 301.666 30 438.999 10c0.666992 35.333 -1 69.333 -5 102l15 151c16.667 193.333 5 507.333 -35 942c4.66699 90 15.667 138.333 33 145zM498.002 1007c-20.667 -125.333 -37.332 -211.667 -49.999 -259c-2 -14 -7.33301 -20.667 -16 -20l-26 3
c-122.667 34.667 -178.667 98 -168 190l1 7c8 68.667 69 102.667 183 102c43.333 -9.33301 68.666 -17 75.999 -23zM483.004 1343c32.667 -217.333 46.9961 -531.001 42.9961 -941.001l-12 -208c-147.333 -47.333 -172 -76.666 -74 -87.999
c40.667 -64.667 105.334 -94 194.001 -88c-3.33301 172 1.33398 307.667 14.001 407c9.33301 4 16.333 5.66699 21 5c18 -2 34.667 -7 50 -15c226.667 -32 391.334 53.667 494.001 257c28 80 39.333 143.667 34 191c-10 214.667 -105.667 357.334 -287 428.001
c0.666992 5.33301 -22.333 11.333 -69 18l-65 9c-149.333 21.333 -263.666 29.666 -342.999 24.999zM842 991.998c114 -28 166.334 -75.332 157.001 -141.999l-1 -7c-12 -90 -83.667 -136.333 -215 -139l-27 4c-8.66699 1.33301 -12.334 8.66602 -11.001 21.999
c6 42 11 128.333 15 259c8 4 35.333 5 82 3z" />
    <glyph glyph-name="afii10087" unicode="&#x445;" horiz-adv-x="1509" 
d="M883 1337c-127.333 -278.667 -198.334 -418 -213.001 -418c-198 236 -302 356 -312 360l-360 -164c1.33301 -6.66699 173.333 -175.667 516 -507l-377 -631c299.333 28.667 463.333 47.667 492 57c91.333 210 143 316.667 155 320
c124.667 -179.333 198.667 -272.333 222 -279l434 131c-71.333 78 -232.666 239 -483.999 483l361 672z" />
    <glyph glyph-name="afii10088" unicode="&#x446;" horiz-adv-x="1134" 
d="M973 1322c6 0 9.00098 -104.668 9.00098 -314.001v-138c0 -82.667 -4 -290.667 -12 -624c64 -14 119.667 -24.333 167 -31v-2c-14.667 -69.333 -22 -140.666 -22 -213.999v-48l1 -17l-3 -2c-185.333 48.667 -312.333 73 -381 73h-5c0 5.33301 -61 8.33301 -183 9h-5
c-112 0 -255.333 -9 -430 -27c-8 24.667 -26.333 121.667 -55 291c-35.333 202 -71 506.333 -107 913c0 0.666992 0.666992 1 2 1c63.333 -10 118.666 -15 165.999 -15c44.667 0 96 7 154 21c19.333 -51.333 44.666 -153.666 75.999 -306.999
c10.667 -58 27.334 -187.333 50.001 -388h1l194 48c-32.667 279.333 -65 517.666 -97 714.999c60 11.333 205.333 29.333 436 54c19.333 1.33301 34 2 44 2z" />
    <glyph glyph-name="afii10089" unicode="&#x447;" horiz-adv-x="1132" 
d="M693 1387c-66.667 -695.333 -105 -1150 -115 -1364l9 -51c113.333 24 230 17 350 -21c86 640.667 143.333 1106.33 172 1397zM687 1389l-36.999 -522l-18 -74c0 -108 -13 -164 -39 -168c-64.667 23.333 -120 54.666 -166 93.999c-26 20.667 -41.667 39.667 -47 57
c48.667 292.667 91 502.334 127 629.001l-228 76l-104 37l-12 -35c-104 -468.667 -137 -780 -99 -934c72.667 -90 176.667 -159.667 312 -209c348 -91.333 495.333 -34.666 442 170.001c32.667 53.333 53.667 94.333 63 123c71.333 220 113.666 465.667 126.999 737
c-94 -2.66699 -201 3.66602 -321 18.999z" />
    <glyph glyph-name="afii10090" unicode="&#x448;" horiz-adv-x="1531" 
d="M148 -49c266.667 46.667 526.333 76.666 779 89.999c232 14 420.333 1 565 -39c23.333 635.333 28 1058.67 14 1270c-105.333 -5.33301 -264.333 -22.333 -477 -51c27.333 -160 59.333 -383.333 96 -670l-194 -47l-11 23l-2 49
c-6.66699 99.333 -26.334 219.333 -59.001 360c-15.333 -9.33301 -126.666 -31.666 -333.999 -66.999c23.333 -67.333 49.333 -182.666 78 -345.999l-21 -17h-32c-56 -12 -106.667 -18.667 -152 -20c-6.66699 13.333 -10 29 -10 47l-10 160c-6 76 -10.333 224 -13 444
l-45 -4c-86 -4 -204 -6 -354 -6l8 -131c19.333 -312.667 77.333 -661 174 -1045z" />
    <glyph glyph-name="afii10091" unicode="&#x449;" horiz-adv-x="1685" 
d="M1516 1339c4 0 6.66504 -83.001 7.99805 -249.001v-156c0 -131.333 -4 -347 -12 -647h2c90 -19.333 144 -29 162 -29v-2c-15.333 -68 -23 -147.333 -23 -238v-22l2 -16c-1.33301 0 -2 -1 -2 -3c-178.667 49.333 -307 74 -385 74c0 4 -52.667 6.66699 -158 8
c-204.667 0 -469.334 -24.333 -794.001 -73c-98.667 -16.667 -150 -25 -154 -25c-65.333 272 -112.333 526 -141 762c-15.333 108 -25 200.667 -29 278l-10 185h4c200.667 0 330.334 4 389.001 12l4 -6v-6c0 -202 8.33301 -418.333 25 -649l8 -21c27.333 0 77.333 7 150 21
h34l21 18c-23.333 148.667 -48.666 268 -75.999 358c0 6 25.333 11.667 76 17c110.667 22 195.334 40.333 254.001 55c2.66699 0 15.667 -62 39 -186c14.667 -110.667 22 -190.667 22 -240c7.33301 -13.333 11 -20.666 11 -21.999l196 49
c-35.333 293.333 -67.333 526 -96 698c0 1.33301 66.333 10.333 199 27c150 18.667 241.333 28 274 28z" />
    <glyph glyph-name="afii10092" unicode="&#x44a;" horiz-adv-x="1103" 
d="M549 -8l70.0029 4c50 2 75 6 75 12c251.333 52 373 188 365 408c-2 50.667 -13.667 118 -35 202c-87.333 217.333 -252.333 320 -495 308c-16.667 -6.66699 -35 -10.334 -55 -11.001c-4.66699 0 -11.667 2.33301 -21 7c-3.33301 103.333 2 274.333 16 513
c-84.667 -31.333 -208.334 -56.666 -371.001 -75.999c7.33301 -63.333 11.666 -109 12.999 -137l5 -163c7.33301 -194.667 0.666016 -517 -20.001 -967c142.667 -74.667 293.667 -108 453 -100zM448.003 321c8 152 11.333 252 10 300c-0.666992 16 3.33301 24.333 12 25
l28 2c134.667 -18 203.667 -79.667 207 -185v-7c2.66699 -79.333 -55.333 -128.666 -174 -147.999c-47.333 3.33301 -75 7.66602 -83 12.999zM-21.9971 991c231.333 21.333 383.001 68 455.001 140c13.333 11.333 21 17 23 17l6 277c-170 -52 -327.667 -73 -473 -63
c13.333 -125.333 9.66602 -249 -11.001 -371z" />
    <glyph glyph-name="afii10093" unicode="&#x44b;" horiz-adv-x="1458" 
d="M933 1259c60 -587.333 114 -977.667 162 -1171c15.333 -35.333 23 -55.333 23 -60l299 67c-42 594 -55 1004.33 -39 1231zM467 -3.00098l67.001 2.99609c50 2.66699 74.667 6.33398 74 11.001c246 47.333 365.333 171.333 358 372c-2 45.333 -13.667 106 -35 182
c-86 198.667 -247.333 292.334 -484 281.001c-16.667 -5.33301 -34.667 -8.66602 -54 -9.99902c-4.66699 0 -11.334 2 -20.001 6c-4 94 1 249.667 15 467c-84.667 -24 -205.334 -47.333 -362.001 -70c6.66699 -56.667 10.667 -98 12 -124l5 -148
c7.33301 -177.333 1 -470.666 -19 -879.999c138.667 -67.333 286.334 -97.333 443.001 -90zM367.001 294.995c8 138.667 11.001 230 9.00098 274c-0.666992 15.333 3.66602 23 12.999 23l27 1c131.333 -16 199 -71.667 203 -167l1 -7c2 -72 -55.333 -117 -172 -135
c-46 3.33301 -73 7 -81 11z" />
    <glyph glyph-name="afii10094" unicode="&#x44c;" horiz-adv-x="1024" 
d="M538 -2l68.002 10c50 6.66699 74.667 12.667 74 18c244.667 74 353 217.333 325 430c-6.66699 48 -24.334 111.667 -53.001 191c-106.667 202.667 -279.667 286.667 -519 252c-16 -8 -33.667 -13.333 -53 -16c-4.66699 -0.666992 -12 1 -22 5
c-12.667 99.333 -23 265.333 -31 498c-83.333 -33.333 -203.333 -69.333 -360 -108c12.667 -60.667 20.667 -104.667 24 -132l21 -157c24.667 -187.333 47.667 -500 69 -938c147.333 -58 299.666 -75.667 456.999 -53zM408.002 306
c-6 147.333 -11.999 244.668 -17.999 292.001c-2 15.333 1.33301 23.666 10 24.999l27 4c134.667 -4.66699 209 -57.667 223 -159l1 -8c10 -75.333 -43.333 -128 -160 -158c-46.667 -2 -74.334 -0.666992 -83.001 4z" />
    <glyph glyph-name="afii10095" unicode="&#x44d;" horiz-adv-x="1038" 
d="M991 818c-50.667 347.333 -239.669 539.999 -567.002 577.999l-19 2c-103.333 12 -215.333 8.66699 -336 -10c96 -166 139.333 -284.333 130 -355v-7c55.333 14 106.333 19 153 15c38 -5.33301 68 -14.666 90 -27.999c166.667 -102.667 238.334 -245 215.001 -427
c-13.333 -54.667 -30.333 -97 -51 -127c-61.333 -82.667 -147.333 -118.334 -258 -107.001l-334 103h-8c34 -138.667 42.333 -271.667 25 -399l-15 -52c40 -21.333 99.333 -35.666 178 -42.999l25 -5c117.333 -12.667 230 4 338 50c252.667 133.333 397.334 338 434.001 614
c9.33301 80.667 9.33301 146.667 0 198zM390.998 540.999c87.333 27.333 254.669 50 502.002 68l-39 185c-2.66699 0 -12.334 2.66699 -29.001 8c-88.667 16 -257.334 19.667 -506.001 11z" />
    <glyph glyph-name="afii10096" unicode="&#x44e;" horiz-adv-x="1797" 
d="M584 769c-27.333 -269.333 54.002 -514.335 244.002 -735.002c82.667 -79.333 177 -124.666 283 -135.999l37 -4c208 -22 384.667 97.333 530 358c32 82.667 51.667 159.334 59 230.001l4 39c29.333 284.667 -47.334 527 -230.001 727
c-84.667 68.667 -165.334 106.667 -242.001 114l-64 7c-202.667 22 -383.334 -86 -542.001 -324c-43.333 -100 -69.666 -192 -78.999 -276zM1132 929.998c97.333 -10 171.333 -115 222 -315l-2 -84c-12 -116.667 -86.333 -183.667 -223 -201l-15 2
c-114.667 12 -171 121 -169 327l6 57c30 152.667 90.333 224 181 214zM112.002 1435c-44.667 -676.667 -59.002 -1129.67 -43.002 -1359c10.667 -42.667 15.334 -66 14.001 -70l342 10c66.667 680.667 130.334 1147 191.001 1399zM210 478.998
c317.333 26.667 528.667 53.999 634 81.999c19.333 9.33301 30 14 32 14l-32 206c-320.667 -13.333 -542 -11.666 -664 5.00098z" />
    <glyph glyph-name="afii10097" unicode="&#x44f;" horiz-adv-x="1222" 
d="M645 1410h-95.001c-72 0 -146 -10.667 -222 -32c-193.333 -64.667 -290 -183.667 -290 -357c0 -176.667 63 -314 189 -412v-15l-54 -87c-92.667 -216.667 -140.334 -364.667 -143.001 -444v-8c188.667 -26 328 -52.333 418 -79c73.333 354 118 531 134 531h112l15 -8
c-5.33301 -124 -19 -290.333 -41 -499c86 20.667 228 39 426 55c-5.33301 46.667 -10.666 126 -15.999 238c0 174 24 509.333 72 1006c-181.333 74 -349.666 111 -504.999 111zM739.999 1085c-17.333 -211.333 -32.666 -317.001 -45.999 -317.001h-26
c-127.333 0 -203.333 63.333 -228 190v16c17.333 84.667 85.666 127 204.999 127c57.333 -5.33301 89 -10.666 95 -15.999z" />
    <glyph glyph-name="afii10103" unicode="&#x456;" horiz-adv-x="575" 
d="M6 1274c66.667 -617.333 126.667 -1027.67 180 -1231c16.667 -36.667 25 -57 25 -61l330 69c-46.667 624 -61 1054.67 -43 1292z" />
    <glyph glyph-name="afii10104" unicode="&#x457;" horiz-adv-x="739" 
d="M74 1277c67.333 -617.333 127.667 -1027.67 181 -1231c16 -36.667 24 -57 24 -61l330 69c-46.667 624 -61 1054.67 -43 1292zM106.001 1489l-4 0.000976562h2c1.33301 0 4.5 0.666992 9.5 2s9.5 2.66602 13.5 3.99902s6.66699 3.33301 8 6v0
c-9.33301 -5.33301 -19 -9.33301 -29 -12zM147.001 1729c78 0 123 -36.332 135 -108.999v-10c0 -44 -25.667 -85 -77 -123c-24.667 -9.33301 -47.334 -14 -68.001 -14c-87.333 13.333 -131 44.666 -131 93.999v28c0 48 29.333 89 88 123c32.667 7.33301 50.334 11 53.001 11
zM444.001 1499l-4 0.000976562h2c1.33301 0 4.5 0.666992 9.5 2s9.5 2.66602 13.5 3.99902s6.66699 3.33301 8 6v0c-9.33301 -5.33301 -19 -9.33301 -29 -12zM485.001 1739c78 0 123 -36.332 135 -108.999v-10c0 -44 -25.667 -85 -77 -123
c-24.667 -9.33301 -47.334 -14 -68.001 -14c-87.333 13.333 -131 44.666 -131 93.999v29c0 47.333 29.333 88.333 88 123c32.667 6.66699 50.334 10 53.001 10z" />
    <glyph glyph-name=".null" horiz-adv-x="0" 
 />
    <glyph glyph-name="nonmarkingreturn" horiz-adv-x="508" 
 />
  </font>
</defs>
</svg>
